<?xml version="1.0" encoding="utf-8"?>
<!-- Generator: Adobe Illustrator 19.2.1, SVG Export Plug-In . SVG Version: 6.00 Build 0)  -->
<svg version="1.1" id="レイヤー_1" xmlns="http://www.w3.org/2000/svg" xmlns:xlink="http://www.w3.org/1999/xlink" x="0px"
	 y="0px" viewBox="0 0 1310.1 350" style="enable-background:new 0 0 1310.1 350;" xml:space="preserve">
<style type="text/css">
	.st0{fill:#FFFFFF;}
	.st1{fill:#D60004;}
</style>
<g>
	<g>
		<path class="st0" d="M1286.4,209.4c-1.9-5.4-3.8-10.8-6.7-16c-5.8-10.7-17.9-14.5-27.2-14.5c-1.8,0-3.6,0.1-5.2,0.4
			c0.1-0.6,0.2-1.2,0.3-1.8c0.2-1.7,0.2-3.1,0.1-4.1c0.3-1.7,0.7-3.4,1.1-5.2c0.5-2.1,1-4.3,1.4-6.5c0.5-2.4,0.4-4.3,0.3-5.5l0-0.1
			c0.2-2.3,0.4-4.9,0.7-7.4c0.2-1.3,0.4-2.9,0.7-4.4l0.2-0.9c0.1-0.4,0.2-0.8,0.3-1.1c0.3-1.1,0.6-2.5,0.8-4.2
			c0.6-5.3,1.3-10.6,1.9-16c0.5-3.9,0.9-7.9,1.4-11.8c0.2-1.6,0.4-3.1,0.6-4.7c0.3-2.1,0.6-4.3,0.8-6.6c0.2-1.5,0.2-2.8,0.3-3.9
			c0-0.8,0.1-1.7,0.1-2.2c0.1-0.2,0.2-0.6,0.3-1c0.5-1.3,1.1-3.2,1.4-5.4c0.7-4.2,1.2-8.4,1.6-12.4l0.2-1.8c0.1-0.4,0.1-0.9,0.2-1.3
			c0.3-2.2,0.7-5,0.5-8.2c-0.2-2.5-0.5-4.8-0.8-6.9c0.5-2.5,0.3-5.1-0.6-7.6l-0.5-1.4c-0.3-0.8-0.6-1.6-0.9-2.4
			c-2.4-6.8-7.4-12.2-14.6-15.6c-5.5-2.6-11.6-5-19-5.1c-0.6,0-1.1,0-1.7,0c-5.4,0-12.4,0.4-19.5,3.8c-6.3,2.9-10.8,9-12.1,16.2
			c-1,5.3,0.6,10.9,4.3,15.3c3.4,4.1,8.3,6.9,13.5,7.8c0,0.5-0.1,1-0.1,1.5c-0.1,1.3-0.1,2.6-0.2,4c-0.1,2.4-0.2,4.7-0.4,6.7
			c-0.3,2.7-0.8,5.6-1.4,8.6c-0.3,1.8-0.6,3.6-0.9,5.4c-0.5,3.4-1.1,6.8-1.6,10.3c-0.3,2-0.6,3.9-0.9,5.9c-0.2,1.6-0.5,3.2-0.7,4.7
			c-0.3,1.9-0.6,3.9-0.9,5.9c-0.1-0.9-0.2-1.7-0.2-2.5c0-0.4,0.1-1.4,0.3-2.1c0.4-2.8,1-6.5,0.2-11.1c-1-5.5-2-11.6-5-17.9
			c-0.9-2-1.9-3.8-2.8-5.5c-0.5-0.9-0.9-1.8-1.4-2.7c-0.5-1.1-1.1-2.2-1.6-3.2c-1.2-2.6-2.5-5.2-4.1-7.9c0,0,0-0.1-0.1-0.1
			c2-4,3.1-8.3,2.9-12.2c0-0.4,0-1.1,0.2-2.1c1.2-9.4-3.3-17.4-11.7-21.4c-3.1-2-6.8-3.2-10.4-3.2c-6.4,0-12,3.2-15.1,8.7
			c-0.1,0.1-0.5,0.6-2.7,1.5c-1.9-0.2-3.9-0.5-6.2-0.9c0,0-0.4-0.1-0.5-0.1c-3.8-2.1-8.7-4.3-14.7-4.3c-0.8,0-1.7,0-2.5,0.1
			c-1.8,0.2-3.5,0.5-5,0.7c-1,0.2-1.9,0.3-2.7,0.4c-9.2,1.1-16.7,4.9-22.2,11.1c-3.7,4.2-5.1,9.4-3.9,14.3c-0.9,1.7-1.8,3.5-2.5,5.5
			c-1.4,3.7-2.3,7.3-3.1,10.4c-0.3,1.3-0.6,2.6-1,3.9c-0.5,1.7-1,3.5-1.5,5.2c-0.7,2.5-1.5,5.1-2.2,7.7c-0.5,1.7-0.7,3.3-0.9,4.5
			c-0.1,0.4-0.1,0.9-0.2,1.3c-1.2,6.1-2.5,12.3-2.6,19.3c0,2-0.4,4.4-0.8,6.9c-0.3,1.9-0.6,3.9-0.9,6.1c-0.2,2-0.2,3.8-0.3,5.4
			c0,0.6,0,1.2,0,1.7c-1-1-2-1.8-3.2-2.6c-0.2-0.1-0.4-0.2-0.6-0.4c0,0,0,0,0,0c-0.1-6.1-2.7-11.4-7.2-14.6c-0.5-0.4-1.6-2-2.4-3.1
			l-0.7-1.1c-2-2.9-4.3-4.8-6-6.3c-0.5-0.4-0.9-0.8-1.2-1.1c-0.6-0.6-1.2-1.2-1.9-1.9c-0.7-0.7-1.3-1.3-2-2
			c-0.2-0.2-0.5-0.5-0.7-0.7c8.4-4.3,14.2-11.8,16.9-21.9c2.3-8.8-1.4-18.4-9.1-23.6c0.1-1.7,0-3.5-0.5-5.5
			c-0.7-2.6-1.4-5.1-2.2-7.4c-1.2-3.7-3.4-5.9-4.3-6.8c-4.3-4.5-9.2-6.3-12.8-7.6l-1-0.4c-5.8-2.2-11.4-2.9-16.2-3.5l-1.7-0.2
			c-1-0.1-1.9-0.2-2.9-0.2c-3.8,0-7.2,1-10,3c-2.1,1.5-3.9,3-5.5,4.4c-0.5,0.5-1.1,0.9-1.6,1.4c-2.3,1.9-3.9,4.5-4.6,7.4
			c-1.1-1.2-2.4-2.2-3.8-3.2c-5.1-3.4-10.7-5.1-16.5-5.1l-0.5,0c-7.3,0.1-12.2,3.6-15.1,5.6c-0.3,0.2-0.7,0.5-1,0.7
			c-5.1,3.4-8.5,8.2-10,13.9c-4.2-8.7-12.3-11.5-16.1-12.8l-0.8-0.3c-4.7-1.7-9.7-2.8-14.8-3.3c-1.4-0.1-2.8-0.2-4.3-0.2
			c-3.5,0-6.8,0.4-9.5,0.7c-6.1,0.7-11,4.9-13.6,11.5c-1.6,4.1-1.4,8.5,0.4,12.3c1.2,2.5,2.9,4.6,5.2,6.3c-0.2,0.5-0.4,1.1-0.6,1.6
			c-5,1.8-8.2,5.9-10.1,9.4l-0.2,0.3c-0.6,0.9-1.5,2.4-2.3,4.5c-1.4,3.9-2.9,9-2.2,14.7c0,0.2,0.1,0.4,0.1,0.6
			c-0.5-0.3-1-0.6-1.3-0.9c-0.5-0.4-1.2-1-1.9-1.6c-1.6-1.4-3.5-3.1-6-4.7c-7.7-4.9-12.9-9.1-16.9-13.8c-0.1-0.1-0.2-0.3-0.3-0.4
			c-1-1.3-2.9-3.7-5.9-5.5c-0.7-0.4-1.5-0.9-2.2-1.4c-4.1-2.5-8.3-5.1-13.1-7.3c-0.7-0.3-1.4-0.7-2.1-1c0.1-0.4,0.2-0.8,0.2-1.2
			c0.3-1.4,0.6-2.9,0.9-3.6c1.9-4.5,1.5-9.8-1-14.3l-0.2-0.3c-1.6-2.9-5.8-10.5-15.5-11.9l-0.4-0.1c-1.7-0.2-3.8-0.6-6.2-0.6
			c-0.7,0-1.4,0-2,0.1l-1.1,0.1c-3.3,0.2-7.4,0.5-11.6,2c-3.7,1.3-6.9,3-9.7,4.5c-0.9,0.5-1.9,1-2.8,1.5c-5.5,2.8-9.3,7.9-10.1,13.9
			c-0.7,5.1,1,10.3,4.4,14.3c-0.6,1.1-1.1,2.2-1.7,3.3c-0.7,1.4-1.3,2.8-1.9,4.2c-3,6.4-5.8,12.4-9.3,17.7
			c-3.2,4.8-5.4,9.3-6.9,13.8c-4.6,0.4-8.9,2.7-11.8,6.6c-2,2.6-5,6.6-6.4,11.9c-0.3,1.1-0.5,2.1-0.7,3.1c0,0-0.1,0-0.1,0
			c-4.5,0-8.9,1.4-12.6,4c-0.5,0.4-1.1,0.8-1.6,1.2c-0.1,0.1-0.2,0.2-0.4,0.3c-7.3,2.8-12.3,7.8-14.7,14.9c-0.7-1.1-1.3-2-1.9-2.8
			c-0.5-0.6-1-1.4-1.2-1.7c-1.4-2.6-4.6-7.5-10-10.7c-6-3.6-12.3-5.4-18.8-5.4c-1.3,0-2.5,0.1-3.8,0.2l-0.5,0.1
			c-2.5,0.3-5.7,0.6-9,1.7c-5.7-2.5-12-3.8-19-3.8c-1.7,0-3.5,0.1-5.3,0.2c-1.9,0.2-3.9,0.5-5.7,0.9c0-0.1,0-0.3,0-0.4
			c0-0.6,0.3-1.8,0.5-2.6c1-4.5,2.4-10.7,1.4-17.6c-0.1-0.9-0.3-1.8-0.4-2.7c-0.2-1.3-0.4-2.5-0.5-3.5c0-0.6,0-1.5,0-2.5
			c0-1.3,0-2.7-0.1-4.3l-0.1-1.9c-0.3-5.8-0.7-11.8-1.2-17.7c-0.5-5.4-1.9-21.7-18.2-30.7c-4.9-2.7-11.7-5.9-20.1-5.9
			c-1.2,0-2.3,0.1-3.5,0.2c-9.3,1-12.9,7.4-14.3,11.1c-0.4,1.3-1.1,2.5-1.9,3.7c-2.4,3.5-9.4,15.7,1.1,26.8c1.1,1.2,2.4,2.2,3.6,3
			c0.1,1.7,0.2,3.3,0.3,4.9c0,0.7,0,1.7-0.1,2.8c-0.1,1.6-0.2,3.4-0.1,5.4c0.1,2.1,0.3,4.1,0.5,5.8c0.1,1.2,0.3,2.2,0.3,3.2
			c0.5,7.4,0.9,15.5,1.5,25.6l0.1,1.2c0.1,1.1,0.1,2.3,0.2,3.4c-3.7-2.2-8-3.4-12.7-3.6c-0.1,0-0.3,0-0.4,0
			c-0.6-0.1-1.5-0.1-2.6-0.1c-6,0-11.3,2.7-14.5,7.3c-1.7-1.5-3.8-2.6-6.1-3.2c-2-0.5-4.6-1.1-7.4-1.5c-0.9-0.1-1.9-0.2-2.8-0.2
			c-7.2,0-12.1,3.9-14.4,5.8c-0.2,0.2-0.4,0.4-0.7,0.5c-8.7,6.7-14.2,15.7-16.3,26.7c0,0.1,0,0.1,0,0.2c-0.5-0.9-1-1.7-1.6-2.6
			c-0.9-1.5-1.8-2.8-2.7-4.1c-0.9-1.4-1.8-2.7-2.5-3.9c-1.1-1.8-2.1-3.8-3.2-5.8c-1.1-2.1-2.2-4.2-3.5-6.4c-0.1-0.2-0.2-0.4-0.3-0.6
			c0.2-0.1,0.4-0.1,0.6-0.2c3.3-1.2,8.8-3.3,12.9-8.8c0.3-0.3,0.9-0.7,1.2-1c0.2-0.2,0.8-0.5,1.2-0.8c1.3-0.9,3.1-2,4.8-3.7
			c0.8-0.7,1.8-1.5,2.8-2.4c3.2-2.7,7.2-6,10.4-11c0.5-0.8,1.2-1.8,1.9-2.8c1.4-2,3.1-4.3,4.5-7.1c2.3-4.4,3.9-8.7,4.6-12.9
			c0.9-5.4,2.5-14.5-2.5-23.4l-0.7-1.3c-3.6-6.4-8.5-15.2-18.4-20.4c-0.4-0.2-1-0.6-1.6-0.9c-1.8-1.1-4.3-2.6-7.4-3.7
			c-4.5-1.5-10.1-3.4-16.2-4.1c-2.1-0.3-4.2-0.4-6.3-0.4c-6.8,0-13.1,1.5-18.7,4.4c-3.7,2-7.3,4.1-10.8,6.2
			c-0.1-0.3-0.3-0.6-0.5-0.9c-3.3-6.5-7.8-11.4-13.4-14.8c-3.9-2.3-7.7-3.5-11.5-3.5c-3.6,0-7.1,1-10.2,2.9c-3.8,2.4-7.8,5-11.6,8.3
			c-0.6,0.6-1.2,1.1-1.9,1.7c-0.2-0.1-0.3-0.2-0.5-0.3c-3.2-1.8-6.7-2.7-10.4-2.7c-4.9,0-9,1.7-11.4,2.7c-1,0.4-1.9,0.8-2.7,1.2
			l-0.7,0.3c-1.3,0.6-2.5,1.4-3.6,2.4c-0.8-0.1-1.5-0.2-2.2-0.3c-1.7-0.2-3.1-0.2-4.4-0.2c-10.7,0-16.9,5.2-20.4,9.9
			c-2.6-0.8-5.2-1.2-8-1.2c-2.8,0-5.7,0.4-8.6,1.2c-1.9,0.5-3.7,1.3-5.2,2.4c-1.1-2.2-2.3-4.5-3.7-6.8c-2.1-3.5-4.6-6.1-6.7-8.2
			l-0.3-0.3c-0.2-0.2-0.3-0.3-0.5-0.5c-1.8-2-5.7-6-12.2-7.4c-2.4-0.5-5.6-1.1-9.3-1.1c-4.6,0-9,1-13.1,2.9
			c-5.1,2.5-13.6,6.6-17.1,17.5c-0.2,0.5-0.3,1.1-0.5,1.6c-1.3,3.9-2.9,8.7-2.7,14.6c0.2,6.1,2.6,14.1,13.4,17.2
			c1.4,0.4,2.8,0.6,4.1,0.7c0.6,1.2,1.2,2.5,1.8,3.8c-1.3,1.1-2.6,2.3-3.9,3.5c-3.2,3.1-4.9,6.7-6.1,9.1c-0.2,0.4-0.4,0.7-0.5,1.1
			c-2.6,5.1-1.9,11.5,1.7,16.6c3.6,5,9,7.8,15.4,7.8c1.9,0,3.6-0.3,4.7-0.4l0.3,0c1.7-0.3,3.3-0.8,4.6-1.4c0,0,0,0.1,0,0.1
			c1.2,3.2,2.3,6.5,3.5,10c0.3,0.8,0.5,1.6,0.8,2.4c-4.4,1.2-9,2.8-13.3,5.8c-0.2,0.2-0.4,0.3-0.7,0.5c-1.6,0.4-3.1,1-4.4,1.7
			c-3-4.5-7.7-7-14.3-7.6c-0.7-0.1-1.4-0.1-2-0.1c-10.3,0-17.9,7.1-19,17.6c-0.2,1.8-0.2,3.6-0.3,5.1c0,0.9-0.1,1.8-0.1,2.7
			l-0.1,1.1c-0.1,1.6-0.2,3.1-0.4,4.3c-0.2,1-0.7,2.5-1.1,3.8c-0.2,0.5-0.3,1-0.5,1.5c-0.8-1-1.5-1.8-2.1-2.4
			c-0.1-0.1-0.3-0.3-0.4-0.4c-0.1-0.1-0.1-0.2-0.2-0.4c-1.7-3-4.7-8.5-11.9-11.3c-0.6-0.2-1.2-0.4-1.7-0.7c0.4-1.6,0.9-3.2,1.3-4.8
			c0.8-3,1.5-5.8,2.3-8.6c0.6-2,1.3-4.3,2.4-7.1c0.1-0.3,0.4-0.9,0.7-1.5c0.4-0.9,1-2.1,1.5-3.4c0.6-1.6,1.3-3.3,1.9-4.9
			c0.7-1.8,1.3-3.6,2-5.2c0.2-0.4,0.5-1.1,0.9-1.8c0.6-1.3,1.4-2.8,2.1-4.7c0.7-1.7,1.1-3.4,1.6-4.8c0.3-1,0.6-2,0.9-2.7
			c0.1-0.2,0.3-0.4,0.4-0.6c0.5-0.8,1.1-1.7,1.8-2.9c1.3-2.4,2-5,2.2-7.5c1.4-2.2,3.1-5.2,3.9-8.9c0.4-2,0.6-3.8,0.6-5.1
			c0-0.3,0-0.6,0.1-0.8c1.4-3.9,0.8-7.3,0.5-8.6c-0.2-1-0.4-2.2-0.6-3.4c0-0.2-0.1-0.8-0.1-1.2c-0.3-2.7-0.8-7.2-3.7-11.4
			c-3.2-4.6-6.9-8.3-10.7-12c-3.1-3-7.1-5.3-11.3-6.5c-3.8-1.1-7.9-1.6-11.8-1.6l-0.4,0c-4.7,0-9.8,0.4-15,1.1
			c-1.2,0.1-2.3,0.4-3.4,0.7c-4.1-11.7-13.9-13.1-18.2-13.1l-0.1,0l-0.2,0c-0.4,0-0.8,0-1.2,0c-0.9,0-1.8,0.1-2.6,0.2
			c-1.8,0.2-4.6,0.6-7.7,1.7c-3.4-1.9-6.9-2.5-9.8-2.5c-0.8,0-1.5,0-2.3,0.1c-1.6,0.2-2.9,0.5-3.9,0.8c-6.3,0.3-10.7,3.4-13.2,5
			l-0.5,0.4c-4.5,3.1-8,7.3-10.3,12.7c-0.4,0-0.8,0.1-1.2,0.1c-4.4-1.8-8.8-2.7-13.2-2.7c-1,0-2,0-2.9,0.1c-1.3-4.2-4.4-7.6-8.6-9.2
			c-0.3-0.1-0.7-0.3-1-0.4c-0.3-0.1-0.6-0.2-1-0.4c-3-1.3-6.9-2.8-11.6-3c-4.1-2-8.5-3-13-3c-3.1,0-6.3,0.5-9.5,1.5
			c-0.7,0.2-1.3,0.4-2,0.6c-2,0.6-4.5,1.3-7.1,2.5c-4.7,2.1-10.4,7.3-11,14.9c-0.3,4-0.7,9.6,0.4,15.2c0.6,3.3,1.6,6.4,2.5,9.3
			c-1.8,1.3-3.7,2.7-5.6,4.2c-1.4,1.1-2.5,2.2-3.4,3.1c-0.2,0.2-0.4,0.4-0.6,0.6c-0.4,0.4-0.9,0.8-1.5,1.3
			c-2.8,2.4-7.3,6.3-9.6,12.7c-0.2,0.5-0.5,1-0.7,1.5l-0.1,0.1c-0.8,1.8-3.1,6.7-1.1,12.7c2.4,7.4,8.7,12.2,16,12.2
			c2,0,4.1-0.4,6.1-1.1c0.7-0.2,1.3-0.5,1.8-0.8c5.4-0.5,9.6-2.6,12.5-4.1c0,0,0.9-0.4,1-0.5c0.4,1.4,0.8,2.8,1.4,4.4
			c1.1,2.8,2.2,5.6,3.3,8.3c-0.7,0.3-1.4,0.6-2.2,0.9c-3-2.8-6.9-4.4-11.1-4.4c-2.2,0-4.3,0.4-6.5,1.3c-5.8,2.2-11.6,8.1-10.7,17.9
			c0.1,1.4,0.4,2.6,0.7,3.6c-0.4,2.7-0.2,6.2,2,9.9c-2.2,1.3-4.3,3-6.4,5.1c-0.1,0.1-0.3,0.2-0.4,0.3c-2.2,1.9-8.1,6.9-7.7,16
			c0,0.4,0,0.9,0,1.3c0,2.6,0.1,6.2,1.5,10c1.1,3.1,2.6,5.5,3.7,7.5c0.5,0.8,1,1.6,1.3,2.2c0.4,0.8,0.8,1.8,1.2,2.8
			c0.8,1.9,1.7,4.1,3,6.4c1.5,2.7,3.3,4.7,4.7,6.2c0.3,0.4,0.7,0.7,1,1.1c0.9,1.1,1.7,2.2,2.6,3.2c2.1,2.6,4.3,5.4,6.8,8.1
			c2.9,3.1,6.1,5.5,9,7.6c3.5,2.5,7.2,5.1,11.5,7.4l0.1,0.1c2.2,1.2,6.2,3.4,11.4,3.4c2.4,0,4.7-0.4,6.9-1.3
			c1.3,0.2,2.7,0.3,3.9,0.3c8.3,0,15.3-3.6,19.8-10c1.7-2.4,3.2-4.8,4.6-7.1c0.5-0.8,1-1.5,1.5-2.3c0.2-0.2,0.3-0.5,0.5-0.7
			c0.9-1.3,2.1-3.1,3.1-5.4c0.9-2.2,1.6-4.3,2.2-6.1c0.2-0.6,0.4-1.3,0.6-1.9c1.5-4.4,0.7-9.3-2.1-13.1c1.3,0.3,2.6,0.5,4,0.5
			c4.7,0,9.3-1.9,12.6-5.3c3.2-3.3,5-7.5,5-12c0-3.3-1-5.9-1.5-7.3l-0.1-0.3c-0.2-0.9-0.5-1.7-0.7-2.6c-0.6-2.2-1.1-4.5-1.9-6.9
			c-0.6-1.8-1.4-3.3-1.9-4.3c-0.6-3.1-1.5-5.7-2.3-7.9c-0.2-0.7-0.6-1.6-0.8-2.4c0.1-0.1,0.2-0.1,0.2-0.2c2.2-1.5,4.3-2.9,6.4-4.3
			c2-1.3,4-2.5,5.7-3.4c5.1-2.6,11.6-10.1,12.8-16.8l0.1-0.4c0.1-0.5,0.2-1.3,0.3-1.7c3.7-7.1,2.3-15.2-3.6-20.4
			c-1.3-1.1-2.5-1.9-3.4-2.5c-3.5-4.2-7.6-6.7-11.2-8.6c-0.3-0.2-0.8-0.4-1.3-0.6c0.5-0.6,1-1.2,1.5-1.8c2.2,2.7,5.4,5.2,9.9,6.8
			c2.4,0.8,4.6,1.2,6.8,1.2c4.7,0,8.8-1.7,12-4.8c2.4,1.5,5.1,2.6,8,3.1c-0.4,0.9-0.7,1.8-1.1,2.8c-1.6,4.3-3,8.6-4.4,12.7
			c-1.2,3.7-2.4,7.1-3.6,10.6c-1.3,3.6-2.6,7.1-4.1,10.8c-1.1,2.7-2.1,5.4-3.1,8.1c-1.3,3.5-2.6,7-3.9,10.6
			c-1.8,5-3.7,10.1-5.6,15.1c-1.9,4.8-4.1,9.9-6.1,14.3c-1,2.2-2.1,4.4-3.2,6.7c-0.6,1.3-1.3,2.6-1.9,3.9c-0.9,1.9-1.8,3.8-2.7,5.7
			c-1,2.2-2.1,4.3-3.1,6.5c-5.7,11.8-3.6,23.7,5.8,31.7c3.2,2.7,6.5,4.1,8.9,5.1c0.7,0.3,1.3,0.5,1.7,0.7c3.3,1.6,6.6,2.4,10,2.4
			c2.4,0,4.8-0.4,7.2-1.2c1.7,0.6,3.5,0.9,5.4,0.9c5.1,0,10-2.3,13.4-6.3c4.6-5.3,7.2-11,9.4-16.1c0.3-0.7,0.6-1.4,0.9-2
			c0.5-1.2,1.1-2.4,1.6-3.5c0.8-0.7,1.5-1.5,2.1-2.3c2.4,2.6,4.9,5.4,7.5,8.5c0.5,0.6,1.1,1.4,1.7,2.3c1.1,1.5,2.3,3.1,3.8,4.8
			c3.3,3.7,6.2,6.5,9.1,8.9c6.1,5.1,12.8,6.6,18.6,7.6c0.9,0.2,1.8,0.2,2.6,0.2c1.9,0,3.4-0.3,4.3-0.6c0.6-0.1,1.3-0.2,1.9-0.4
			c1.1-0.2,2.3-0.4,2.9-0.5c9.6-0.4,15.3-4.9,18.4-8.6c0.4-0.5,0.8-1,1.2-1.4c1.9-2.3,4.4-5.1,6.3-8.7c0.9-1.7,1.8-3.5,2.5-5.4
			c1.6,2.1,3.2,4,4.7,5.8c1.9,2.2,3.8,3.9,5.5,5.4c1.1,1,2.1,1.9,2.7,2.6c3.1,3.4,7.4,7.6,13.7,10.3l0.6,0.2c3.9,1.6,8.8,3.7,15,4.1
			c1.2,0.1,3,0.6,5,1.1c2,0.6,4.4,1.2,6.9,1.7c2.3,0.4,4.6,0.6,6.9,0.6c2,0,4-0.1,5.9-0.4c2-0.3,3.7-0.7,5.1-1.1
			c0.8-0.2,1.8-0.5,2.1-0.5c0.6,0,1.2,0,1.8,0c9,0,16.4-3.5,21.1-6.1c6.1-3.3,9.4-9.5,9-15.8c1.5-4.6,0.9-8.4-0.2-11
			c-0.5-1.2-1.2-2.5-2.2-3.9l-0.6-8.9c-0.4-6.5-5.3-11.9-11.7-13l-0.6-0.1c-0.8-0.1-1.6-0.2-2.4-0.2c-5.5,0-10.7,3.3-13,8.5
			c-0.5,0.9-1.5,3.1-1.8,6.1c-0.2,1.5-0.3,3-0.4,4.4c-0.1,1.1-0.1,2.1-0.2,3.1c-0.5,0.1-1,0.2-1.5,0.2c-1.2-1.1-2.5-2-4-2.7
			c-0.4-0.4-1.1-1.3-1.6-1.9c-1.5-1.8-3.3-4.1-5.9-6.2c-0.3-0.4-1-1.3-1.4-2c-2-2.8-3.9-5.8-5.9-8.6c-1.5-2.2-3-4.5-4.5-6.7
			c-0.2-0.3-0.5-0.7-0.7-1c0.5,0.1,0.9,0.2,1.4,0.4c2.5,0.7,5.2,1,7.8,1c7.1,0,13.1-2.4,18.1-4.6c6.5-2.8,9.9-10,7.9-16.8
			c-0.1-0.4-0.2-0.7-0.3-1c-0.4-1.6-1-4.1-2.4-6.7c-0.4-0.8-0.8-1.5-1.3-2.3c-0.6-1.1-1.2-2.2-1.5-2.8c-1.1-3.2-2.1-6.2-3-9.2
			c-1.4-4.5-3.3-8.7-4.9-12.4c-0.3-0.8-0.7-1.5-1-2.3c-1.2-2.7-2.5-5.4-3.7-8c-1.3-2.8-2.6-5.5-3.7-8.2c1.3-0.1,2.6-0.3,3.7-0.5
			c1.3-0.2,2.6-0.4,3.3-0.4c0,0,0,0,0.1,0c1.5,0.5,3,0.7,4.6,0.7c5.2,0,9.2-2.5,11.1-4.1c3.4-2.7,5.3-5.9,6.4-8.7
			c0.8,0.1,1.7,0.1,2.5,0.1c0.4,0,0.9,0,1.3,0c5-0.2,9.6-2,13.2-5.1c2.6,1,5.4,1.6,8.3,1.7l0.4,0c0.3,0,0.5,0,0.8,0
			c0,2,0.1,4.1,0.3,6.2c0.2,2.9,0.6,5.6,1.1,8.2c0.3,2,0.6,3.8,0.8,5.5c0.4,4.6,0.6,9.2,0.9,14.1l0.1,2.1c0.1,2.7,0.2,5.5,0.3,8.3
			c0,1.5,0.1,3.1,0.1,4.6c0.2,5.6,0.4,11.3,0.6,16.9c0.1,3.6,0.3,6.7,0.4,9.7c0.1,1.1,0.1,2.3,0.2,3.4c0.1,1.6,0.2,3.1,0.2,4.3
			c0,4.1,0.1,8.7-0.2,13c-0.2,3.1-0.7,6.3-1.3,10.1c-0.3,1.6-0.6,3.3-1.1,5.1c-0.4,1.6-0.7,3.3-1.1,5.1c-0.3,1.7-0.5,3.3-0.8,4.8
			c-0.3,1.9-0.5,3.7-0.9,5.2c-3.4,14,5,20.9,8.7,23.2c3.9,2.4,8.7,4,13.3,4.2c0.4,0,0.8,0,1.2,0c4.6,0,9.2-1.5,12.7-4.1
			c10-0.8,18.3-8,20.1-17.7c1.5-8.2,2.1-16.3,1.8-24.2c0.1-1.6,0.3-5.4-1.7-9.3c0-0.1,0-0.2,0-0.2c0-0.4-0.1-0.8-0.1-1.2
			c0.1-0.8,0.2-1.9,0.2-3.1c0-0.2,0-0.3,0-0.5c0.2,0.4,0.4,0.9,0.6,1.3c0.9,2,1.9,4.3,3.3,6.7c1.6,2.7,3.3,5.2,4.9,7.6
			c1.1,1.7,2.2,3.3,3.2,4.9c2.4,3.8,4.8,7.7,7.1,11.5l1.3,2.1c0.8,1.2,1.5,2.5,2.2,3.8c0.9,1.6,1.9,3.2,2.9,4.8l0.6,1
			c2.4,4,6.5,10.8,15.1,14c1.2,0.5,2.3,0.7,3,0.9l0,0c2,0.7,4.1,1.1,6.3,1.1c5.2,0,10.1-2.2,13.7-5.9c1.4,0.9,2.8,1.7,4.3,2.5
			c2.3,1.2,4.9,1.8,7.6,1.8c0.9,0,1.6-0.1,2.1-0.1l0.1,0c0.8,0,1.4-0.1,1.9-0.1c2.1,0.2,4,0.3,5.8,0.3c4.2,0,8.1-0.6,11.6-1.8
			c4.3,4.5,10.4,7.3,17.2,7.3c4.6,0,9-1.3,12.7-3.8c1-0.7,1.9-1.4,2.6-2c1.8,2.1,3.9,3.6,5.8,4.8c0,0,0.3,0.3,0.3,0.3
			c5,5.1,10.3,6.1,13.9,6.1c2.8,0,5.6-0.6,8.2-1.9c0,0,0.1,0,0.1,0c1.2-0.3,3.3-0.9,5.6-2.2c3.2-1.8,5.6-4.1,7.1-5.7
			c1.3-1.4,2.2-2.7,2.8-3.6c0,0,0-0.1,0.1-0.1c2-1.8,4.1-3.6,6.3-5.5c0.7-0.6,1.3-1.1,2-1.7c0.4-0.3,0.9-0.6,1.6-1.1l0.8-0.7
			c1.3-1,2.6-2.1,4-3.3c2-1.8,4.1-3.7,6.5-6l0.5-0.4c1.2-1.1,3.1-2.8,4.7-5.3c1.1-1.7,1.9-3.3,2.7-4.7c0.4-0.8,0.8-1.5,1.1-2.1
			c2-3.4,4.2-7.2,6.6-11.1c0.3,1,0.6,2,0.9,3c0.7,2.5,1.4,4.8,1.9,7c1.9,9,6.4,15.9,13.5,20.6c0.6,0.4,1.2,0.8,1.9,1.1
			c-0.4,2-0.9,4-1.4,6c-0.8,3.1-2.1,6.4-3.4,9.8c-0.3,0.8-0.6,1.7-1,2.5c-0.7,1.8-1.4,3.6-2.1,5.5c-2-0.8-4.1-1.2-6.2-1.2
			c-0.2,0-0.4,0-0.6,0c-7.2,0.3-13.7,6.1-14.8,13.3c-0.4,2.8-0.7,5.6-0.8,8.3c-0.1,3.7-0.1,7.3-0.1,10.6l0,1.1c0,2.7,0,5.8,0.3,9
			c0.2,2.4,0.8,4.3,1.2,5.5c0,0.1,0.1,0.2,0.1,0.3c1.2,11,11.2,19.8,22.7,19.8c0,0,0,0,0,0c3.4,0,6.8-0.8,9.7-2.4
			c0.9-0.5,2-0.9,3.1-1.4c1.1-0.5,2.2-1,3.3-1.5l0.3-0.1c1.6-0.7,4.5-2.1,7.1-5.1c1.5-1.7,2.6-3.3,3.7-4.8c0.3-0.4,0.5-0.7,0.8-1.1
			c0.6-0.6,1.5-1.6,2.4-3l0.5-0.8c1-1.6,2.2-3.5,3.3-5.7c0.8-1.6,1.4-3.1,1.8-4.3c0.3-0.7,0.6-1.5,0.8-1.9c0.4-0.8,0.9-1.7,1.4-2.7
			c0.7-1.3,1.5-2.7,2.2-4.3c0.7-1.5,1.3-3,1.8-4.2c0.4-1.2,1-2.5,1.3-3c2.9-4.7,5.1-9.2,6.7-13.7c0.3-1,0.7-1.9,1-2.9
			c0.4-1.2,0.9-2.5,1.3-3.7c0.4-1,0.7-1.9,1.1-2.9c0.7-1.7,1.4-3.5,2-5.4c0.6-1.7,1-3.2,1.3-4.6c0.2-0.9,0.4-1.7,0.6-2.4
			c0.4-1.4,0.9-2.8,1.3-4.2c1.7-5.3,3.3-10.3,5-15.2c0.8-2.1,1.2-4.1,1.4-5.5c0-0.2,0.1-0.4,0.1-0.6c2.3-3.1,3.4-7.1,3-11.1
			c0.1-0.5,0.4-1.3,0.6-1.9c0.5-1.5,1.2-3.3,1.7-5.4c0.2-0.5,0.8-1.6,1.3-2.5c0.3-0.6,0.7-1.3,1.1-2c0.3,0.2,0.6,0.4,0.9,0.6
			c-1.7,3.8-3.3,7.8-4.1,12.3c-0.8,4.8-2.4,14.4,2.4,23.9c0.4,2.3,1.5,5.5,4.5,8.3c2.3,2.1,5,4.1,8,5.7c3,1.6,6.1,2.4,9.3,2.4
			c3.4,0,6.8-1,9.7-2.8c4.1-0.5,7.3-2,9.5-3c0.3-0.2,0.7-0.3,1.1-0.5c0.6-0.2,1.1-0.5,1.7-0.7c3.5-1.5,8.3-3.4,12.6-7.6
			c0.2-0.2,0.8-0.5,1.2-0.8c1-0.7,2.3-1.5,3.6-2.6l1.6-1.3c3.1-2.5,6.4-5.2,9.6-8.3c2.5-2.5,4.6-5,6.5-7.3c0.9-1.1,1.8-2.2,2.7-3.2
			c0.1-0.1,0.3-0.4,0.6-0.6c0.7,0.8,1.3,1.5,1.7,2.2c2.2,3.4,4.4,6.5,6.6,9.6l1.4,1.9c1.3,1.8,2.7,3.5,4.5,5.4
			c0.9,1,1.9,1.9,2.7,2.7c0.9,0.9,1.8,1.8,2.3,2.4c2.9,3.6,7.7,9.7,17.1,11.7c1.5,0.3,3,0.5,4.6,0.5c6.5,0,13.5-2.9,18.4-7.8
			c2.7,1.8,5.8,3.1,9.2,3.7c1.3,0.2,2.7,0.3,4,0.3c4.3,0,8.2-1.2,11.5-3.3c1.2,0.2,2.5,0.4,3.9,0.4c2.2,0,4.4-0.4,6.4-1
			c3.6-1.2,8.4-2.9,13.1-5.4l0.7-0.4c1.2-0.6,2.8-1.4,4.4-2.5c1.7,0.4,3.5,0.6,5.3,0.6c1.9,0,3.9-0.3,5.7-0.7
			c2.3,0.8,4.7,1.2,7.1,1.2c1.8,0,3.6-0.2,5.3-0.7c1.7,0.5,3.3,1.2,4.7,2.1l0.5,0.3c1.8,1.2,4.6,3,8.3,4.1c1.9,0.5,3.6,0.8,4.9,1
			c0.2,0,0.5,0.1,0.8,0.1c2.4,1.4,5.2,2.1,8.2,2.1c1.6,0,3.1-0.2,4.5-0.6c0.3,0.1,0.6,0.1,0.9,0.2c1.7,0.4,3.4,0.8,4.6,1.2
			c2.4,0.9,4.7,1.3,7.1,1.3c3.1,0,7.8-0.8,12.3-4.7c0.3-0.2,0.8-0.4,1.2-0.6c0.4-0.2,0.7-0.4,1.1-0.6c0.4-0.2,0.9-0.5,1.5-0.7
			c1.4-0.7,3.2-1.5,5.1-2.8c0.1-0.1,0.2-0.1,0.3-0.2c0.1,0.1,0.2,0.2,0.3,0.3c1.8,1.6,3.5,3,5.1,4.3c1.5,1.2,3,2.4,4.2,3.5
			c4.5,4.1,9.8,6.9,16.3,8.6c1.8,0.5,3.7,0.7,5.4,0.7c0,0,0,0,0,0c9.4,0,16.4-6.6,17.6-16.1c0.1-0.2,0.2-0.4,0.3-0.7
			c0.7-1.2,1.9-3.7,2.1-7c0.2-2.5,0.2-5.1,0-7.7c-0.2-3.3-0.7-10.1-5.4-16.2c-0.2-0.2-0.5-0.9-0.8-1.4c-0.5-0.9-1.2-2.1-2-3.4
			c-0.9-1.3-1.7-2.3-2.5-3.2c0.3-0.9,0.5-1.7,0.7-2.5l0.1-0.5c1.8-6.9,1.1-12.7-2.2-17.3c1.1-1.2,2.2-2.6,3-4.2
			c0.1-0.2,0.2-0.4,0.4-0.7c0.1,0.7,0.1,1.4,0.2,2.3c0.2,2.2,0.4,4.9,1.1,7.9c0.8,3.2,1.9,6,2.9,8.5c0.3,0.9,0.7,1.7,1,2.6
			c0.3,0.9,0.6,1.8,1,2.7c0.8,2.3,1.6,4.6,2.6,7.1c0.7,1.7,1.5,3.2,2.1,4.4c0.4,0.8,1,1.8,1.1,2.2c3.1,9.2,9.5,15,14.1,19.2
			c3.1,2.8,6.3,4.7,9.1,6.4c1,0.6,2,1.2,2.8,1.7c0.1,0.1,0.2,0.2,0.3,0.3c1.5,1.4,4.3,3.9,8.5,5.1c2.6,0.8,5.1,1.1,7,1.4
			c1,0.1,2.4,0.3,2.9,0.5c2.7,1,5.5,1.4,8.4,1.4h0c7.1,0,12.6-3,16.3-5l0.4-0.2c3.5-1.9,10.5-5.7,14.9-13c1.3-1.1,2.5-2.3,3.5-3.7
			c1.2,1.5,2.5,3,3.8,4.4c3.3,3.6,7.2,7.1,12.6,8.9c2.4,0.8,4.9,1.2,7.8,1.2c1.6,0,3.2-0.1,4.4-0.2c0.6,0,1.1-0.1,1.6-0.1
			c1.7-0.1,3.2-0.3,4.4-0.4c0.7-0.1,1.3-0.2,1.7-0.2c2.4-0.1,8.4-0.5,13.7-5.3c0.2-0.1,0.9-0.2,1.4-0.3c1.4-0.3,3.1-0.7,5-1.3
			c1.7-0.6,3.3-0.9,4.7-0.9c0.5,0,1,0,1.5,0.1c1.3,0.2,2.5,0.3,3.5,0.4c0.4,0,0.8,0.1,1.2,0.1c5.7,3.4,11.3,5,16.6,6.4
			c1.5,0.4,3,0.5,4.5,0.5c6.2,0,12-3.1,15.7-8.2C1287.4,220.9,1288.3,214.9,1286.4,209.4z"/>
		<path d="M1224.4,23.9c0.6,0,1.1,0,1.7,0c7.5,0.1,13.6,2.5,19,5.1c7.2,3.4,12.2,8.8,14.6,15.6c0.3,0.8,0.6,1.6,0.9,2.4l0.5,1.4
			c0.9,2.4,1.1,5.1,0.6,7.6c0.3,2.1,0.6,4.5,0.8,6.9c0.2,3.2-0.2,6-0.5,8.2c-0.1,0.4-0.1,0.9-0.2,1.3l-0.2,1.8
			c-0.5,4-1,8.2-1.6,12.4c-0.4,2.2-1,4.1-1.4,5.4c-0.1,0.3-0.3,0.7-0.3,1c-0.1,0.5-0.1,1.4-0.1,2.2c-0.1,1.2-0.1,2.5-0.3,3.9
			c-0.2,2.3-0.5,4.5-0.8,6.6c-0.2,1.6-0.4,3.1-0.6,4.7c-0.5,3.9-0.9,7.9-1.4,11.8c-0.6,5.3-1.2,10.6-1.9,16
			c-0.2,1.7-0.5,3.1-0.8,4.2c-0.1,0.4-0.2,0.8-0.3,1.1l-0.2,0.9c-0.3,1.6-0.6,3.1-0.7,4.4c-0.3,2.5-0.5,5.1-0.7,7.4l0,0.1
			c0,1.2,0.1,3.1-0.3,5.5c-0.4,2.2-0.9,4.4-1.4,6.5c-0.4,1.8-0.8,3.5-1.1,5.2c0.1,1,0.1,2.4-0.1,4.1c-0.1,0.6-0.2,1.2-0.3,1.8
			c1.7-0.3,3.4-0.4,5.2-0.4c9.3,0,21.4,3.8,27.2,14.5c2.9,5.2,4.8,10.6,6.7,16c1.9,5.5,1,11.5-2.5,16.4c-3.6,5.1-9.5,8.2-15.7,8.2
			c-1.5,0-3-0.2-4.5-0.5c-5.3-1.3-10.9-2.9-16.6-6.4c-0.4,0-0.8-0.1-1.2-0.1c-1-0.1-2.2-0.2-3.5-0.4c-0.5-0.1-1-0.1-1.5-0.1
			c-1.5,0-3,0.3-4.7,0.9c-1.9,0.7-3.6,1.1-5,1.3c-0.5,0.1-1.1,0.2-1.4,0.3c-5.3,4.7-11.4,5.1-13.7,5.3c-0.4,0-1,0.1-1.7,0.2
			c-1.2,0.2-2.7,0.4-4.4,0.4c-0.5,0-1.1,0.1-1.6,0.1c-1.2,0.1-2.7,0.2-4.4,0.2c-2.8,0-5.4-0.4-7.8-1.2c-5.4-1.8-9.2-5.3-12.6-8.9
			c-1.3-1.4-2.5-2.8-3.8-4.4c-1,1.4-2.2,2.6-3.5,3.7c-4.4,7.4-11.4,11.1-14.9,13l-0.4,0.2c-3.7,2-9.2,5-16.3,5h0
			c-2.8,0-5.7-0.5-8.4-1.4c-0.5-0.2-1.9-0.3-2.9-0.5c-2-0.3-4.4-0.6-7-1.4c-4.2-1.2-7-3.7-8.5-5.1c-0.1-0.1-0.2-0.2-0.3-0.3
			c-0.8-0.5-1.8-1.1-2.8-1.7c-2.8-1.7-6-3.6-9.1-6.4c-4.7-4.2-11.1-10.1-14.1-19.2c-0.1-0.4-0.7-1.4-1.1-2.2
			c-0.6-1.2-1.4-2.7-2.1-4.4c-1-2.4-1.8-4.8-2.6-7.1c-0.3-0.9-0.6-1.8-1-2.7c-0.3-0.9-0.7-1.7-1-2.6c-1-2.5-2.1-5.3-2.9-8.5
			c-0.7-2.9-0.9-5.7-1.1-7.9c-0.1-0.8-0.1-1.6-0.2-2.3c-0.1,0.2-0.3,0.4-0.4,0.7c-0.9,1.5-1.9,2.9-3,4.2c3.3,4.7,4,10.5,2.2,17.3
			l-0.1,0.5c-0.2,0.8-0.4,1.6-0.7,2.5c0.8,0.9,1.7,1.9,2.5,3.2c0.8,1.3,1.5,2.4,2,3.4c0.3,0.5,0.6,1.2,0.8,1.4
			c4.7,6.2,5.2,13,5.4,16.2c0.2,2.6,0.2,5.2,0,7.7c-0.2,3.3-1.5,5.7-2.1,7c-0.1,0.2-0.2,0.4-0.3,0.7c-1.2,9.6-8.3,16.1-17.6,16.1
			c0,0,0,0,0,0c-1.8,0-3.6-0.2-5.4-0.7c-6.5-1.7-11.8-4.5-16.3-8.6c-1.2-1.1-2.7-2.3-4.2-3.5c-1.7-1.3-3.4-2.7-5.1-4.3
			c-0.1-0.1-0.2-0.2-0.3-0.3c-0.1,0.1-0.2,0.1-0.3,0.2c-1.9,1.3-3.7,2.1-5.1,2.8c-0.6,0.3-1.1,0.5-1.5,0.7c-0.4,0.2-0.7,0.4-1.1,0.6
			c-0.4,0.2-0.9,0.5-1.2,0.6c-4.5,3.9-9.2,4.7-12.3,4.7c-2.3,0-4.6-0.4-7.1-1.3c-1.2-0.4-2.8-0.8-4.6-1.2c-0.3-0.1-0.6-0.1-0.9-0.2
			c-1.4,0.4-3,0.6-4.5,0.6c-3,0-5.8-0.7-8.2-2.1c-0.2,0-0.5-0.1-0.8-0.1c-1.3-0.2-3-0.4-4.9-1c-3.6-1-6.4-2.9-8.3-4.1l-0.5-0.3
			c-1.4-0.9-3-1.6-4.7-2.1c-1.8,0.5-3.5,0.7-5.3,0.7c-2.4,0-4.8-0.4-7.1-1.2c-1.9,0.5-3.8,0.7-5.7,0.7c-1.8,0-3.6-0.2-5.3-0.6
			c-1.6,1.1-3.2,1.9-4.4,2.5l-0.7,0.4c-4.7,2.4-9.5,4.1-13.1,5.4c-2.1,0.7-4.2,1-6.4,1c-1.4,0-2.7-0.1-3.9-0.4
			c-3.2,2.1-7.1,3.3-11.5,3.3c-1.3,0-2.6-0.1-4-0.3c-3.4-0.5-6.5-1.8-9.2-3.7c-4.9,4.9-11.9,7.8-18.4,7.8c-1.6,0-3.1-0.2-4.6-0.5
			c-9.4-2-14.2-8.1-17.1-11.7c-0.5-0.6-1.4-1.5-2.3-2.4c-0.8-0.8-1.7-1.7-2.7-2.7c-1.7-1.9-3.2-3.6-4.5-5.4l-1.4-1.9
			c-2.2-3-4.5-6.2-6.6-9.6c-0.4-0.7-1-1.4-1.7-2.2c-0.2,0.2-0.5,0.5-0.6,0.6c-0.9,1.1-1.8,2.1-2.7,3.2c-1.9,2.3-4,4.9-6.5,7.3
			c-3.2,3.1-6.4,5.8-9.6,8.3l-1.6,1.3c-1.3,1.1-2.6,1.9-3.6,2.6c-0.4,0.3-1,0.6-1.2,0.8c-4.3,4.1-9.1,6.1-12.6,7.6
			c-0.6,0.2-1.1,0.5-1.7,0.7c-0.4,0.2-0.7,0.3-1.1,0.5c-2.2,1-5.4,2.5-9.5,3c-2.9,1.8-6.3,2.8-9.7,2.8c-3.2,0-6.3-0.8-9.3-2.4
			c-3.1-1.7-5.8-3.6-8-5.7c-2.9-2.8-4-6-4.5-8.3c-4.9-9.5-3.3-19.1-2.4-23.9c0.8-4.5,2.3-8.5,4.1-12.3c-0.3-0.2-0.6-0.4-0.9-0.6
			c-0.4,0.7-0.7,1.4-1.1,2c-0.5,0.8-1.1,2-1.3,2.5c-0.5,2.1-1.1,3.9-1.7,5.4c-0.2,0.6-0.5,1.4-0.6,1.9c0.4,4-0.7,7.9-3,11.1
			c0,0.2-0.1,0.4-0.1,0.6c-0.3,1.4-0.7,3.4-1.4,5.5c-1.8,4.9-3.4,9.9-5,15.2c-0.4,1.4-0.9,2.8-1.3,4.2c-0.2,0.7-0.4,1.5-0.6,2.4
			c-0.3,1.4-0.7,2.9-1.3,4.6c-0.7,1.9-1.4,3.7-2,5.4c-0.4,1-0.8,1.9-1.1,2.9c-0.5,1.2-0.9,2.5-1.3,3.7c-0.3,1-0.7,1.9-1,2.9
			c-1.6,4.6-3.8,9.1-6.7,13.7c-0.3,0.5-0.8,1.9-1.3,3c-0.5,1.3-1,2.7-1.8,4.2c-0.7,1.6-1.5,3-2.2,4.3c-0.5,1-1,1.9-1.4,2.7
			c-0.2,0.4-0.5,1.2-0.8,1.9c-0.5,1.2-1,2.7-1.8,4.3c-1.1,2.2-2.3,4.1-3.3,5.7l-0.5,0.8c-0.9,1.4-1.8,2.4-2.4,3
			c-0.3,0.4-0.5,0.7-0.8,1.1c-1.1,1.5-2.2,3.1-3.7,4.8c-2.6,3-5.5,4.4-7.1,5.1l-0.3,0.1c-1.1,0.5-2.2,1-3.3,1.5
			c-1.2,0.5-2.2,1-3.1,1.4c-3,1.5-6.3,2.4-9.7,2.4c0,0,0,0,0,0c-11.5,0-21.5-8.8-22.7-19.8c0-0.1-0.1-0.2-0.1-0.3
			c-0.4-1.3-1-3.1-1.2-5.5c-0.3-3.2-0.3-6.2-0.3-9l0-1.1c0-3.3,0-6.9,0.1-10.6c0.1-2.7,0.3-5.5,0.8-8.3c1.1-7.2,7.6-13,14.8-13.3
			c0.2,0,0.4,0,0.6,0c2.1,0,4.2,0.4,6.2,1.2c0.7-1.8,1.4-3.7,2.1-5.5c0.3-0.8,0.6-1.7,1-2.5c1.3-3.5,2.6-6.7,3.4-9.8
			c0.5-1.9,1-3.9,1.4-6c-0.6-0.3-1.3-0.7-1.9-1.1c-7.1-4.7-11.6-11.6-13.5-20.6c-0.4-2.1-1.1-4.5-1.9-7c-0.3-1-0.6-2-0.9-3
			c-2.3,3.9-4.6,7.7-6.6,11.1c-0.3,0.6-0.7,1.3-1.1,2.1c-0.7,1.4-1.6,3-2.7,4.7c-1.6,2.5-3.4,4.2-4.7,5.3l-0.5,0.4
			c-2.4,2.2-4.5,4.2-6.5,6c-1.4,1.2-2.7,2.3-4,3.3l-0.8,0.7c-0.6,0.5-1.2,0.9-1.6,1.1c-0.7,0.6-1.3,1.1-2,1.7
			c-2.2,1.9-4.3,3.7-6.3,5.5c0,0,0,0.1-0.1,0.1c-0.6,0.9-1.5,2.2-2.8,3.6c-1.5,1.6-3.9,3.9-7.1,5.7c-2.3,1.3-4.3,1.8-5.6,2.2
			c0,0-0.1,0-0.1,0c-2.7,1.3-5.4,1.9-8.2,1.9c-3.6,0-8.9-1.1-13.9-6.1c0,0-0.3-0.3-0.3-0.3c-2-1.2-4-2.7-5.8-4.8
			c-0.7,0.6-1.6,1.4-2.6,2c-3.8,2.5-8.2,3.8-12.7,3.8c-6.8,0-12.9-2.7-17.2-7.3c-3.5,1.2-7.4,1.8-11.6,1.8c-1.8,0-3.7-0.1-5.8-0.3
			c-0.5,0.1-1.2,0.1-1.9,0.1l-0.1,0c-0.4,0-1.2,0.1-2.1,0.1c-2.8,0-5.3-0.6-7.6-1.8c-1.5-0.8-3-1.6-4.3-2.5
			c-3.6,3.7-8.5,5.9-13.7,5.9c-2.1,0-4.3-0.4-6.3-1.1l0,0c-0.6-0.2-1.7-0.4-3-0.9c-8.6-3.1-12.7-9.9-15.1-14l-0.6-1
			c-1-1.6-1.9-3.2-2.9-4.8c-0.7-1.3-1.5-2.5-2.2-3.8l-1.3-2.1c-2.3-3.8-4.7-7.8-7.1-11.5c-1-1.6-2.1-3.2-3.2-4.9
			c-1.6-2.4-3.3-4.9-4.9-7.6c-1.4-2.4-2.4-4.7-3.3-6.7c-0.2-0.4-0.4-0.9-0.6-1.3c0,0.2,0,0.3,0,0.5c0,1.2-0.1,2.2-0.2,3.1
			c0,0.4,0.1,0.8,0.1,1.2c0,0.1,0,0.1,0,0.2c2,4,1.8,7.8,1.7,9.3c0.3,7.9-0.3,16-1.8,24.2c-1.8,9.7-10.1,16.9-20.1,17.7
			c-3.6,2.6-8.1,4.1-12.7,4.1c-0.4,0-0.8,0-1.2,0c-4.6-0.3-9.4-1.8-13.3-4.2c-3.7-2.3-12.1-9.2-8.7-23.2c0.4-1.5,0.6-3.3,0.9-5.2
			c0.2-1.5,0.5-3.1,0.8-4.8c0.3-1.8,0.7-3.5,1.1-5.1c0.4-1.8,0.8-3.5,1.1-5.1c0.6-3.9,1.1-7.1,1.3-10.1c0.3-4.3,0.2-8.9,0.2-13
			c0-1.3-0.1-2.8-0.2-4.3c-0.1-1.1-0.2-2.3-0.2-3.4c-0.2-3-0.3-6.1-0.4-9.7c-0.2-5.6-0.4-11.3-0.6-16.9c0-1.5-0.1-3.1-0.1-4.6
			c-0.1-2.9-0.2-5.6-0.3-8.3l-0.1-2.1c-0.2-4.9-0.4-9.5-0.9-14.1c-0.2-1.7-0.4-3.6-0.8-5.5c-0.4-2.6-0.8-5.3-1.1-8.2
			c-0.2-2.1-0.2-4.2-0.3-6.2c-0.3,0-0.5,0-0.8,0l-0.4,0c-2.9-0.1-5.7-0.6-8.3-1.7c-3.6,3.1-8.3,5-13.2,5.1c-0.4,0-0.9,0-1.3,0
			c-0.9,0-1.7,0-2.5-0.1c-1.1,2.8-3,6-6.4,8.7c-1.9,1.5-5.9,4.1-11.1,4.1c-1.6,0-3.1-0.2-4.6-0.7c0,0,0,0-0.1,0
			c-0.7,0-2,0.2-3.3,0.4c-1.1,0.2-2.3,0.4-3.7,0.5c1.2,2.7,2.4,5.4,3.7,8.2c1.2,2.6,2.5,5.3,3.7,8c0.3,0.8,0.7,1.5,1,2.3
			c1.7,3.7,3.6,7.9,4.9,12.4c0.9,3,1.9,6.1,3,9.2c0.2,0.6,0.8,1.7,1.5,2.8c0.4,0.7,0.9,1.5,1.3,2.3c1.4,2.6,2,5.1,2.4,6.7
			c0.1,0.3,0.2,0.7,0.3,1c1.9,6.8-1.5,14-7.9,16.8c-5.1,2.2-11.1,4.6-18.1,4.6c-2.7,0-5.3-0.3-7.8-1c-0.5-0.1-0.9-0.2-1.4-0.4
			c0.2,0.3,0.5,0.6,0.7,1c1.5,2.2,3,4.5,4.5,6.7c1.9,2.9,3.9,5.8,5.9,8.6c0.5,0.7,1.1,1.6,1.4,2c2.6,2.1,4.5,4.4,5.9,6.2
			c0.5,0.7,1.2,1.5,1.6,1.9c1.4,0.7,2.8,1.6,4,2.7c0.5-0.1,1-0.2,1.5-0.2c0.1-1,0.2-2,0.2-3.1c0.1-1.4,0.2-2.9,0.4-4.4
			c0.3-3,1.4-5.1,1.8-6.1c2.3-5.2,7.4-8.5,13-8.5c0.8,0,1.6,0.1,2.4,0.2l0.6,0.1c6.4,1.1,11.3,6.5,11.7,13l0.6,8.9
			c1,1.3,1.7,2.7,2.2,3.9c1,2.6,1.7,6.4,0.2,11c0.3,6.3-3,12.5-9,15.8c-4.7,2.6-12.1,6.1-21.1,6.1c-0.6,0-1.2,0-1.8,0
			c-0.3,0-1.4,0.3-2.1,0.5c-1.4,0.4-3.1,0.8-5.1,1.1c-1.9,0.3-3.9,0.4-5.9,0.4c-2.3,0-4.7-0.2-6.9-0.6c-2.6-0.4-4.9-1.1-6.9-1.7
			c-2-0.6-3.9-1.1-5-1.1c-6.3-0.4-11.1-2.4-15-4.1l-0.6-0.2c-6.3-2.6-10.6-6.9-13.7-10.3c-0.7-0.7-1.7-1.6-2.7-2.6
			c-1.7-1.5-3.6-3.2-5.5-5.4c-1.5-1.8-3.1-3.7-4.7-5.8c-0.7,1.9-1.5,3.7-2.5,5.4c-1.9,3.6-4.4,6.4-6.3,8.7c-0.4,0.5-0.8,0.9-1.2,1.4
			c-3.1,3.7-8.8,8.2-18.4,8.6c-0.6,0-1.8,0.2-2.9,0.5c-0.6,0.1-1.3,0.2-1.9,0.4c-0.9,0.2-2.4,0.6-4.3,0.6c-0.9,0-1.8-0.1-2.6-0.2
			c-5.8-1-12.5-2.5-18.6-7.6c-2.9-2.4-5.8-5.3-9.1-8.9c-1.6-1.7-2.8-3.4-3.8-4.8c-0.6-0.9-1.2-1.7-1.7-2.3c-2.6-3-5-5.8-7.5-8.5
			c-0.6,0.8-1.3,1.5-2.1,2.3c-0.5,1-1.1,2.2-1.6,3.5c-0.3,0.7-0.6,1.4-0.9,2c-2.3,5-4.9,10.7-9.4,16.1c-3.4,4-8.3,6.3-13.4,6.3
			c-1.9,0-3.7-0.3-5.4-0.9c-2.4,0.8-4.8,1.2-7.2,1.2c-3.4,0-6.8-0.8-10-2.4c-0.4-0.2-1-0.5-1.7-0.7c-2.4-1-5.8-2.4-8.9-5.1
			c-9.3-8-11.5-19.8-5.8-31.7c1-2.2,2.1-4.3,3.1-6.5c0.9-1.9,1.8-3.8,2.7-5.7c0.6-1.3,1.3-2.6,1.9-3.9c1.1-2.3,2.2-4.5,3.2-6.7
			c2-4.4,4.2-9.5,6.1-14.3c1.9-5,3.8-10.1,5.6-15.1c1.3-3.5,2.6-7,3.9-10.6c1-2.7,2.1-5.4,3.1-8.1c1.5-3.7,2.8-7.3,4.1-10.8
			c1.2-3.5,2.4-6.9,3.6-10.6c1.4-4.1,2.8-8.4,4.4-12.7c0.3-1,0.7-1.9,1.1-2.8c-2.9-0.5-5.6-1.5-8-3.1c-3.2,3.1-7.3,4.8-12,4.8
			c0,0,0,0,0,0c-2.2,0-4.4-0.4-6.8-1.2c-4.5-1.5-7.6-4.1-9.9-6.8c-0.5,0.6-1,1.2-1.5,1.8c0.5,0.2,1,0.5,1.3,0.6
			c3.6,1.9,7.7,4.4,11.2,8.6c1,0.6,2.2,1.4,3.4,2.5c5.8,5.2,7.2,13.3,3.6,20.4c-0.1,0.4-0.2,1.2-0.3,1.7l-0.1,0.4
			c-1.2,6.7-7.7,14.3-12.8,16.8c-1.8,0.9-3.7,2.1-5.7,3.4c-2.2,1.4-4.2,2.8-6.4,4.3c-0.1,0.1-0.2,0.1-0.2,0.2
			c0.2,0.8,0.6,1.7,0.8,2.4c0.8,2.2,1.7,4.9,2.3,7.9c0.6,1,1.4,2.5,1.9,4.3c0.8,2.4,1.4,4.7,1.9,6.9c0.2,0.9,0.4,1.7,0.7,2.6
			l0.1,0.3c0.5,1.4,1.5,4,1.5,7.3c0,4.5-1.8,8.8-5,12c-3.3,3.3-7.9,5.3-12.6,5.3c-1.4,0-2.7-0.2-4-0.5c2.8,3.7,3.6,8.6,2.1,13.1
			c-0.2,0.6-0.4,1.2-0.6,1.9c-0.6,1.8-1.3,3.9-2.2,6.1c-1,2.4-2.2,4.1-3.1,5.4c-0.2,0.2-0.3,0.5-0.5,0.7c-0.5,0.8-1,1.5-1.5,2.3
			c-1.4,2.3-2.9,4.7-4.6,7.1c-4.5,6.5-11.6,10-19.8,10c-1.3,0-2.6-0.1-3.9-0.3c-2.2,0.9-4.5,1.3-6.9,1.3c0,0,0,0,0,0
			c-5.3,0-9.3-2.2-11.4-3.4l-0.1-0.1c-4.2-2.3-8-4.9-11.5-7.4c-3-2.1-6.1-4.5-9-7.6c-2.5-2.7-4.7-5.4-6.8-8.1
			c-0.9-1.1-1.7-2.2-2.6-3.2c-0.3-0.4-0.6-0.7-1-1.1c-1.3-1.5-3.2-3.4-4.7-6.2c-1.3-2.3-2.2-4.5-3-6.4c-0.4-1.1-0.8-2.1-1.2-2.8
			c-0.3-0.6-0.8-1.4-1.3-2.2c-1.2-2-2.6-4.5-3.7-7.5c-1.4-3.9-1.4-7.5-1.5-10c0-0.4,0-0.9,0-1.3c-0.4-9.1,5.5-14.1,7.7-16
			c0.1-0.1,0.3-0.2,0.4-0.3c2-2.1,4.2-3.8,6.4-5.1c-2.1-3.8-2.4-7.2-2-9.9c-0.3-1-0.6-2.2-0.7-3.6c-1-9.8,4.9-15.7,10.7-17.9
			c2.2-0.9,4.3-1.3,6.5-1.3c4.2,0,8.1,1.6,11.1,4.4c0.7-0.3,1.4-0.6,2.2-0.9c-1.1-2.7-2.2-5.5-3.3-8.3c-0.6-1.6-1-3.1-1.4-4.4
			c-0.1,0.1-1,0.5-1,0.5c-2.9,1.5-7.2,3.6-12.5,4.1c-0.5,0.2-1.1,0.5-1.8,0.8c-2,0.7-4,1.1-6.1,1.1c-7.3,0-13.6-4.8-16-12.2
			c-2-5.9,0.3-10.8,1.1-12.7l0.1-0.1c0.2-0.5,0.4-1.1,0.7-1.5c2.2-6.5,6.7-10.3,9.6-12.7c0.6-0.5,1.1-1,1.5-1.3
			c0.2-0.2,0.4-0.4,0.6-0.6c0.9-0.9,2-2,3.4-3.1c1.9-1.5,3.8-2.9,5.6-4.2c-1-2.9-1.9-6-2.5-9.3c-1.1-5.7-0.7-11.2-0.4-15.2
			c0.6-7.5,6.3-12.7,11-14.9c2.6-1.2,5.1-1.9,7.1-2.5c0.7-0.2,1.3-0.4,2-0.6c3.1-1,6.3-1.5,9.5-1.5c4.5,0,8.8,1,13,3
			c4.7,0.3,8.7,1.7,11.6,3c0.3,0.1,0.6,0.2,1,0.4c0.3,0.1,0.7,0.2,1,0.4c4.2,1.6,7.4,5,8.6,9.2c1-0.1,2-0.1,2.9-0.1
			c4.4,0,8.8,0.9,13.2,2.7c0.4-0.1,0.8-0.1,1.2-0.1c2.3-5.3,5.7-9.6,10.3-12.7l0.5-0.4c2.4-1.7,6.9-4.7,13.2-5
			c1-0.3,2.3-0.7,3.9-0.8c0.8-0.1,1.5-0.1,2.3-0.1c2.9,0,6.4,0.6,9.8,2.5c3.1-1.1,5.9-1.5,7.7-1.7c0.8-0.1,1.7-0.2,2.6-0.2
			c0.4,0,0.8,0,1.2,0l0.2,0l0.1,0c4.3,0,14.1,1.4,18.2,13.1c1.1-0.3,2.2-0.6,3.4-0.7c5.2-0.7,10.2-1,15-1.1l0.4,0
			c3.9,0,7.9,0.6,11.8,1.6c4.2,1.2,8.2,3.5,11.3,6.5c3.8,3.7,7.5,7.4,10.7,12c2.9,4.2,3.4,8.7,3.7,11.4c0,0.4,0.1,1,0.1,1.2
			c0.2,1.2,0.4,2.4,0.6,3.4c0.3,1.4,0.9,4.7-0.5,8.6c0,0.3,0,0.6-0.1,0.8c-0.1,1.3-0.2,3.1-0.6,5.1c-0.8,3.7-2.5,6.7-3.9,8.9
			c-0.1,2.6-0.9,5.1-2.2,7.5c-0.6,1.2-1.3,2.1-1.8,2.9c-0.1,0.2-0.3,0.4-0.4,0.6c-0.3,0.8-0.6,1.7-0.9,2.7c-0.4,1.4-0.9,3.1-1.6,4.8
			c-0.7,1.8-1.5,3.4-2.1,4.7c-0.4,0.7-0.7,1.3-0.9,1.8c-0.7,1.7-1.3,3.4-2,5.2c-0.6,1.6-1.2,3.3-1.9,4.9c-0.5,1.3-1.1,2.4-1.5,3.4
			c-0.3,0.5-0.6,1.2-0.7,1.5c-1.1,2.8-1.8,5.1-2.4,7.1c-0.8,2.8-1.5,5.6-2.3,8.6c-0.4,1.6-0.9,3.2-1.3,4.8c0.6,0.2,1.2,0.4,1.7,0.7
			c7.1,2.7,10.2,8.3,11.9,11.3c0.1,0.1,0.1,0.2,0.2,0.4c0.1,0.1,0.3,0.3,0.4,0.4c0.6,0.6,1.3,1.4,2.1,2.4c0.2-0.5,0.4-1,0.5-1.5
			c0.4-1.3,0.9-2.8,1.1-3.8c0.2-1.2,0.3-2.7,0.4-4.3l0.1-1.1c0.1-0.9,0.1-1.8,0.1-2.7c0.1-1.5,0.1-3.3,0.3-5.1
			c1-10.5,8.6-17.6,19-17.6c0.7,0,1.3,0,2,0.1c6.5,0.5,11.3,3,14.3,7.6c1.3-0.7,2.8-1.3,4.4-1.7c0.2-0.2,0.4-0.3,0.7-0.5
			c4.4-3,8.9-4.7,13.3-5.8c-0.3-0.8-0.5-1.6-0.8-2.4c-1.2-3.5-2.3-6.8-3.5-10c0,0,0-0.1,0-0.1c-1.3,0.6-2.8,1.1-4.6,1.4l-0.3,0
			c-1.1,0.2-2.7,0.4-4.7,0.4c-6.4,0-11.8-2.8-15.4-7.8c-3.6-5.1-4.3-11.4-1.7-16.6c0.2-0.4,0.4-0.7,0.5-1.1c1.1-2.4,2.9-6,6.1-9.1
			c1.3-1.2,2.6-2.4,3.9-3.5c-0.6-1.3-1.2-2.6-1.8-3.8c-1.4-0.1-2.8-0.4-4.1-0.7c-10.8-3-13.3-11-13.4-17.2
			c-0.2-5.9,1.4-10.7,2.7-14.6c0.2-0.5,0.4-1,0.5-1.6c3.5-10.9,12-15,17.1-17.5c4-2,8.4-2.9,13.1-2.9c3.6,0,6.8,0.6,9.3,1.1
			c6.6,1.4,10.4,5.5,12.2,7.4c0.2,0.2,0.3,0.3,0.5,0.5l0.3,0.3c2,2.1,4.6,4.7,6.7,8.2c1.4,2.3,2.6,4.5,3.7,6.8
			c1.5-1.1,3.3-1.9,5.2-2.4c2.9-0.8,5.8-1.2,8.6-1.2c2.8,0,5.5,0.4,8,1.2c3.4-4.7,9.7-9.9,20.4-9.9c1.3,0,2.7,0.1,4.4,0.2
			c0.7,0.1,1.4,0.2,2.2,0.3c1.1-1,2.3-1.8,3.6-2.4l0.7-0.3c0.7-0.3,1.6-0.8,2.7-1.2c2.4-1,6.5-2.7,11.4-2.7c3.7,0,7.2,0.9,10.4,2.7
			c0.2,0.1,0.3,0.2,0.5,0.3c0.6-0.6,1.2-1.2,1.9-1.7c3.8-3.4,7.8-5.9,11.6-8.3c3.1-1.9,6.6-2.9,10.2-2.9c3.9,0,7.6,1.1,11.5,3.5
			c5.6,3.3,10.2,8.3,13.4,14.8c0.2,0.3,0.3,0.6,0.5,0.9c3.5-2.1,7.1-4.2,10.8-6.2c5.6-2.9,11.9-4.4,18.7-4.4c2,0,4.2,0.1,6.3,0.4
			c6.1,0.8,11.7,2.6,16.2,4.1c3.1,1,5.6,2.5,7.4,3.7c0.6,0.4,1.2,0.7,1.6,0.9c9.9,5.2,14.8,14,18.4,20.4l0.7,1.3
			c5,8.9,3.4,18,2.5,23.4c-0.7,4.2-2.3,8.5-4.6,12.9c-1.4,2.7-3.1,5-4.5,7.1c-0.7,1-1.4,1.9-1.9,2.8c-3.2,5-7.2,8.3-10.4,11
			c-1,0.8-2,1.7-2.8,2.4c-1.8,1.6-3.5,2.8-4.8,3.7c-0.5,0.3-1,0.7-1.2,0.8c-0.3,0.2-0.9,0.7-1.2,1c-4.2,5.6-9.7,7.6-12.9,8.8
			c-0.2,0.1-0.4,0.1-0.6,0.2c0.1,0.2,0.2,0.4,0.3,0.6c1.2,2.2,2.4,4.3,3.5,6.4c1.1,2.1,2.1,4,3.2,5.8c0.7,1.2,1.6,2.5,2.5,3.9
			c0.9,1.3,1.8,2.7,2.7,4.1c0.6,0.9,1.1,1.8,1.6,2.6c0-0.1,0-0.1,0-0.2c2.1-11,7.6-20,16.3-26.7c0.2-0.2,0.4-0.4,0.7-0.5
			c2.3-1.9,7.2-5.8,14.4-5.8c0.9,0,1.9,0.1,2.8,0.2c2.8,0.4,5.4,1,7.4,1.5c2.3,0.6,4.3,1.7,6.1,3.2c3.3-4.7,8.5-7.3,14.5-7.3
			c1,0,1.9,0.1,2.6,0.1c0.1,0,0.3,0,0.4,0c4.7,0.2,8.9,1.4,12.7,3.6c-0.1-1.1-0.1-2.2-0.2-3.4l-0.1-1.2c-0.5-10.1-1-18.2-1.5-25.6
			c-0.1-0.9-0.2-2-0.3-3.2c-0.2-1.7-0.4-3.7-0.5-5.8c-0.1-2,0-3.8,0.1-5.4c0.1-1.1,0.1-2.1,0.1-2.8c-0.1-1.6-0.1-3.2-0.3-4.9
			c-1.3-0.8-2.5-1.7-3.6-3c-10.5-11.1-3.5-23.4-1.1-26.8c0.8-1.2,1.5-2.5,1.9-3.7c1.3-3.7,4.9-10.2,14.3-11.1
			c1.2-0.1,2.3-0.2,3.5-0.2c8.4,0,15.1,3.1,20.1,5.9c16.3,9,17.7,25.3,18.2,30.7c0.5,6,0.9,12,1.2,17.7l0.1,1.9
			c0.1,1.6,0.1,3,0.1,4.3c0,1,0,1.9,0,2.5c0.1,1,0.3,2.2,0.5,3.5c0.2,0.9,0.3,1.8,0.4,2.7c1,6.9-0.4,13.1-1.4,17.6
			c-0.2,0.8-0.5,2-0.5,2.6c0,0.1,0,0.3,0,0.4c1.9-0.5,3.8-0.8,5.7-0.9c1.8-0.2,3.6-0.2,5.3-0.2c6.9,0,13.3,1.3,19,3.8
			c3.3-1.1,6.5-1.5,9-1.7l0.5-0.1c1.2-0.1,2.5-0.2,3.8-0.2c6.5,0,12.8,1.8,18.8,5.4c5.4,3.2,8.6,8.1,10,10.7
			c0.2,0.4,0.7,1.1,1.2,1.7c0.6,0.8,1.2,1.7,1.9,2.8c2.5-7.1,7.4-12.1,14.7-14.9c0.1-0.1,0.2-0.2,0.4-0.3c0.5-0.4,1-0.8,1.6-1.2
			c3.7-2.6,8.1-4,12.6-4c0,0,0.1,0,0.1,0c0.2-1,0.4-2.1,0.7-3.1c1.4-5.3,4.4-9.3,6.4-11.9c2.9-3.8,7.2-6.2,11.8-6.6
			c1.5-4.5,3.8-9,6.9-13.8c3.5-5.3,6.3-11.4,9.3-17.7c0.6-1.4,1.3-2.8,1.9-4.2c0.5-1.2,1.1-2.3,1.7-3.3c-3.5-4-5.1-9.2-4.4-14.3
			c0.8-5.9,4.5-11.1,10.1-13.9c0.9-0.5,1.9-1,2.8-1.5c2.8-1.5,6-3.2,9.7-4.5c4.3-1.5,8.4-1.8,11.6-2l1.1-0.1c0.7-0.1,1.3-0.1,2-0.1
			c2.4,0,4.5,0.3,6.2,0.6l0.4,0.1c9.7,1.4,13.9,9,15.5,11.9l0.2,0.3c2.5,4.5,2.9,9.8,1,14.3c-0.3,0.7-0.6,2.2-0.9,3.6
			c-0.1,0.4-0.1,0.8-0.2,1.2c0.7,0.4,1.4,0.7,2.1,1c4.8,2.2,9,4.8,13.1,7.3c0.7,0.5,1.5,0.9,2.2,1.4c3,1.8,4.9,4.2,5.9,5.5
			c0.1,0.1,0.2,0.3,0.3,0.4c4,4.7,9.2,8.9,16.9,13.8c2.5,1.6,4.4,3.3,6,4.7c0.7,0.6,1.3,1.2,1.9,1.6c0.3,0.3,0.8,0.6,1.3,0.9
			c0-0.2-0.1-0.4-0.1-0.6c-0.7-5.7,0.8-10.9,2.2-14.7c0.8-2.1,1.7-3.6,2.3-4.5l0.2-0.3c2-3.5,5.2-7.6,10.1-9.4
			c0.2-0.5,0.4-1.1,0.6-1.6c-2.3-1.6-4-3.8-5.2-6.3c-1.8-3.9-1.9-8.3-0.4-12.3c2.6-6.7,7.5-10.8,13.6-11.5c2.7-0.3,6-0.7,9.5-0.7
			c1.5,0,2.9,0.1,4.3,0.2c5.1,0.5,10.1,1.6,14.8,3.3l0.8,0.3c3.7,1.3,11.9,4.1,16.1,12.8c1.4-5.6,4.9-10.5,10-13.9
			c0.3-0.2,0.7-0.5,1-0.7c2.9-2,7.8-5.5,15.1-5.6l0.5,0c5.8,0,11.4,1.7,16.5,5.1c1.4,0.9,2.7,2,3.8,3.2c0.7-2.9,2.3-5.5,4.6-7.4
			c0.6-0.5,1.1-0.9,1.6-1.4c1.6-1.4,3.4-2.9,5.5-4.4c2.8-2,6.2-3,10-3c0.9,0,1.9,0.1,2.9,0.2l1.7,0.2c4.9,0.6,10.4,1.3,16.2,3.5
			l1,0.4c3.6,1.3,8.4,3.1,12.8,7.6c0.9,0.9,3.1,3.1,4.3,6.8c0.7,2.3,1.5,4.8,2.2,7.4c0.5,2,0.6,3.8,0.5,5.5
			c7.7,5.2,11.4,14.8,9.1,23.6c-2.7,10.1-8.5,17.6-16.9,21.9c0.2,0.2,0.5,0.4,0.7,0.7c0.7,0.6,1.3,1.3,2,2c0.6,0.6,1.2,1.2,1.9,1.9
			c0.3,0.3,0.7,0.7,1.2,1.1c1.7,1.4,4,3.4,6,6.3l0.7,1.1c0.7,1.1,1.9,2.8,2.4,3.1c4.5,3.2,7.1,8.6,7.2,14.6c0,0,0,0,0,0
			c0.2,0.1,0.4,0.2,0.6,0.4c1.1,0.7,2.2,1.6,3.2,2.6c0-0.5,0-1.1,0-1.7c0-1.6,0.1-3.4,0.3-5.4c0.2-2.1,0.6-4.1,0.9-6.1
			c0.4-2.5,0.8-4.9,0.8-6.9c0.2-7,1.4-13.3,2.6-19.3c0.1-0.4,0.1-0.9,0.2-1.3c0.2-1.2,0.4-2.8,0.9-4.5c0.7-2.6,1.4-5.2,2.2-7.7
			c0.5-1.7,1-3.5,1.5-5.2c0.4-1.3,0.7-2.6,1-3.9c0.8-3.2,1.7-6.8,3.1-10.4c0.8-2,1.6-3.8,2.5-5.5c-1.2-4.8,0.2-10.1,3.9-14.3
			c5.5-6.2,13-10,22.2-11.1c0.8-0.1,1.7-0.3,2.7-0.4c1.5-0.3,3.2-0.5,5-0.7c0.8-0.1,1.7-0.1,2.5-0.1c6,0,10.9,2.1,14.7,4.3
			c0,0,0.5,0.1,0.5,0.1c2.3,0.4,4.3,0.7,6.2,0.9c2.2-1,2.6-1.4,2.7-1.5c3.1-5.4,8.8-8.7,15.1-8.7c3.6,0,7.3,1.1,10.4,3.2
			c8.4,4,12.9,12,11.7,21.4c-0.1,1-0.2,1.7-0.2,2.1c0.2,3.9-0.9,8.2-2.9,12.2c0,0,0,0.1,0.1,0.1c1.6,2.7,2.9,5.4,4.1,7.9
			c0.5,1.1,1,2.2,1.6,3.2c0.5,0.9,0.9,1.8,1.4,2.7c0.9,1.7,1.9,3.5,2.8,5.5c2.9,6.2,4,12.4,5,17.9c0.8,4.6,0.2,8.4-0.2,11.1
			c-0.1,0.8-0.3,1.8-0.3,2.1c0.1,0.8,0.1,1.6,0.2,2.5c0.3-2,0.6-4,0.9-5.9c0.3-1.6,0.5-3.2,0.7-4.7c0.3-2,0.6-3.9,0.9-5.9
			c0.5-3.4,1-6.8,1.6-10.3c0.3-1.8,0.6-3.6,0.9-5.4c0.5-3,1-5.8,1.4-8.6c0.2-2,0.3-4.3,0.4-6.7c0-1.3,0.1-2.6,0.2-4
			c0-0.5,0.1-1,0.1-1.5c-5.1-0.9-10.1-3.7-13.5-7.8c-3.7-4.4-5.3-10-4.3-15.3c1.3-7.2,5.8-13.3,12.1-16.2
			C1212,24.3,1219.1,23.9,1224.4,23.9 M1224.4,7.6c-6.5,0-16.3,0.5-26.4,5.3c-2.8,1.3-5.5,3-7.8,5c-0.7-0.4-1.3-0.8-2-1.1
			c-5.6-3.4-11.9-5.2-18.3-5.2c-8.5,0-16.3,3-22.4,8.4c-5.6-2.3-11.1-3.5-16.8-3.5c-1.4,0-2.8,0.1-4.1,0.2c-2.4,0.2-4.5,0.6-6.1,0.9
			c-0.8,0.1-1.5,0.3-2,0.3c-13.1,1.6-24.2,7.3-32.4,16.4c-4.6,5.2-7.5,11.6-8.2,18.2c-0.6-0.8-1.3-1.5-2-2.2c-0.1-0.5-0.2-1-0.4-1.5
			c-0.8-3-1.6-5.8-2.4-8.3c-2.3-7.4-6.7-11.8-8.3-13.4c-6.9-7-14.2-9.7-18.6-11.3l-1-0.4c-7.6-2.9-14.5-3.7-20-4.4l-1.7-0.2
			c-1.6-0.2-3.3-0.3-4.9-0.3c-7.1,0-13.9,2.1-19.4,6c-2.5,1.8-4.6,3.5-6.3,5c-5.2-2-10.7-3.1-16.4-3.1c-0.1,0-0.1,0-0.2,0l-0.5,0
			c0,0-0.1,0-0.1,0c-12.2,0.2-20.6,6.1-24.1,8.5l-0.2,0.1c-0.2,0.1-0.3,0.2-0.5,0.4c-1.3,0.8-2.5,1.7-3.6,2.7
			c-3.5-1.8-6.5-2.9-8.2-3.5l-0.7-0.3c-6-2.1-12.2-3.5-18.6-4.1c-1.9-0.2-3.9-0.3-5.9-0.3c-4.4,0-8.4,0.4-11.3,0.8
			c-12.2,1.3-22.3,9.5-27,21.8c-2.7,7.2-2.9,14.8-0.5,21.9c-1.3,1.6-2.5,3.4-3.6,5.3c-0.1,0.2-0.3,0.5-0.5,0.8
			c-1.4-1.2-2.6-2.5-3.7-3.7l-0.1-0.1c-1.4-1.8-4.7-6-10.2-9.4c-0.6-0.4-1.3-0.8-1.9-1.2l-0.2-0.2c-1.7-1-3.4-2.1-5.3-3.2
			c0.4-6.3-1-12.7-4.2-18.3l-0.2-0.3c-6.4-11.6-15.6-18.3-27.3-20.1l-0.4-0.1c-2-0.3-5-0.7-8.6-0.7c-1.1,0-2.2,0-3.3,0.1l-1.1,0.1
			c-3.8,0.3-9.5,0.7-15.8,2.9c-4.8,1.7-8.8,3.8-11.9,5.4l-0.1,0c-0.8,0.4-1.6,0.8-2.4,1.2c-10.4,5.2-17.5,15-19,26.3
			c-0.8,5.8,0,11.7,2.2,17.1l0,0c-2.8,6.1-5.3,11.3-8.1,15.7c-2.1,3.1-3.8,6.2-5.3,9.3c-4.9,2.2-9.3,5.7-12.7,10.1
			c-1.7,2.3-4.5,5.9-6.7,10.8c-3.3,1.1-6.5,2.8-9.4,4.8c-0.3,0.2-0.5,0.3-0.7,0.5c-2.3,1-4.4,2.2-6.4,3.5c-1.5-1.2-3.2-2.4-5-3.5
			c-8.5-5.1-17.7-7.7-27.1-7.7c-1.8,0-3.7,0.1-5.6,0.3l-0.4,0c-1.7,0.2-3.8,0.4-6.2,0.9c-4-1.3-8.2-2.2-12.5-2.7
			c-0.1-1.9-0.2-3.9-0.5-6c-0.2-1-0.3-2-0.5-3c-0.1-0.6-0.3-1.5-0.3-1.9c0-0.3,0-0.7,0-1c0-1.4,0-3.2-0.1-5.4l-0.1-1.9
			c-0.3-5.9-0.7-12-1.3-18.3c-1.8-20-10.7-34.7-26.5-43.4c-6.1-3.4-15.7-7.9-28-7.9c-1.7,0-3.5,0.1-5.2,0.3
			c-13,1.4-23.5,9.5-27.8,21.7c0,0,0,0,0,0.1c-8,11.7-12.1,30.7,2.1,46.5c-0.1,1.7-0.2,3.8-0.1,6.2c0.1,2.8,0.4,5.2,0.6,7.1
			c0.1,0.9,0.2,1.8,0.2,2.3c0.2,2.9,0.4,5.9,0.6,9.2c-5.6,0.3-10.9,1.8-15.5,4.4c-1.9-0.5-4.3-1-6.9-1.5c0.9-1.4,1.9-3,2.8-4.8
			c3.1-5.9,5.2-11.9,6.2-17.8c1.1-6.6,3.5-20.2-4.4-34.1l-0.7-1.3c-4-7.2-10.8-19.3-24.9-26.8c-0.2-0.1-0.5-0.3-0.8-0.5
			c-2.2-1.3-5.9-3.6-10.8-5.2c-4.9-1.6-11.6-3.9-19.3-4.8c-2.8-0.3-5.6-0.5-8.3-0.5c-8.9,0-17.2,1.8-24.7,5.5
			c-3.1-3.2-6.6-6-10.4-8.3c-6.4-3.8-13.1-5.7-19.8-5.7c-6.6,0-13.1,1.9-18.7,5.4c-2.5,1.6-5.3,3.3-8.1,5.4
			c-2.5-0.5-5.1-0.8-7.7-0.8c-8.1,0-14.5,2.6-17.6,3.9c-1.3,0.5-2.5,1.1-3.3,1.5l-0.7,0.3c-0.3,0.1-0.6,0.3-0.9,0.4
			c-0.9,0-1.7-0.1-2.5-0.1c-9.9,0-18.9,3-26,8.7c-0.8,0-1.6-0.1-2.4-0.1c-2.1,0-4.2,0.2-6.4,0.4c-2.2-2.9-4.4-5.2-6.1-6.9l-0.3-0.3
			l-0.2-0.2c-2.5-2.7-9.2-9.8-20.8-12.3c-2.9-0.6-7.4-1.4-12.6-1.4c-7.1,0-13.9,1.5-20.2,4.6c-4.8,2.3-14.7,7.1-21.4,18
			c-0.5-0.5-1.1-1-1.6-1.6c-5-4.8-11.5-8.5-18.2-10.4c-5.2-1.5-10.8-2.3-16.2-2.3c0,0-0.1,0-0.1,0l-0.4,0c0,0,0,0-0.1,0
			c-3.2,0-6.5,0.2-9.9,0.5c-7.4-8.4-17.7-11.7-26.4-11.7c-0.6,0-1.1,0-1.7,0c-1.6,0-3.1,0.1-4.7,0.3c-1.1,0.1-2.6,0.3-4.5,0.7
			c-3.5-1.1-7.2-1.6-10.9-1.6c-1.3,0-2.7,0.1-4,0.2c-1.7,0.2-3.4,0.5-5.1,0.9c-9.8,1-16.5,5.7-19.4,7.7l-0.5,0.3
			c-3.3,2.2-6.2,4.8-8.7,7.8c-0.1,0-0.3,0-0.4-0.1c-3.3-3.8-7.5-6.7-12.3-8.5c-0.4-0.2-0.9-0.3-1.3-0.5l-0.2-0.1
			c-3.2-1.4-7.9-3.1-13.5-3.9c-5.5-2.2-11.3-3.4-17.2-3.4c-4.8,0-9.6,0.8-14.4,2.3c-0.4,0.1-0.9,0.3-1.4,0.4l-0.1,0
			c-2.3,0.7-5.7,1.6-9.4,3.3C40.3,25,30.1,34.7,29,49.3C28.6,54,28.1,61,29.6,68.9c0,0,0,0,0,0c-0.8,0.7-1.4,1.4-1.9,1.9l-0.1,0.1
			c-0.1,0.1-0.2,0.2-0.3,0.3c-0.2,0.2-0.5,0.5-0.8,0.7c-3.4,2.9-10.2,8.7-14,18.7c-0.2,0.5-0.5,1-0.7,1.5
			c-3.7,8.2-4.3,16.4-1.7,24.3c2.3,7,6.7,12.8,12.2,16.9c-1.3,4.2-1.7,8.8-1.3,13.6c0.1,1.1,0.3,2.1,0.5,3.2c0,0.9,0,1.8,0,2.7
			c-8.6,7.8-12.8,17.3-12.3,28.2c0,0.2,0,0.4,0,0.7l0,0.2c0.1,3.3,0.1,8.8,2.4,15.2c1.6,4.6,3.7,8.1,5.1,10.4
			c0.2,0.4,0.5,0.9,0.7,1.1c0.2,0.4,0.5,1.2,0.7,1.7c0.9,2.1,2.1,5,3.8,8.2c2.4,4.4,5.2,7.4,6.9,9.2l0.2,0.2
			c0.1,0.1,0.2,0.2,0.2,0.3c0.7,0.9,1.5,1.8,2.2,2.8l0.2,0.2c2.2,2.8,4.7,5.9,7.6,9c3.9,4.3,8,7.3,11.5,9.8
			c3.7,2.7,8.1,5.8,13.2,8.5l0.1,0.1c2.9,1.6,9.8,5.3,19.2,5.3c2.9,0,5.8-0.4,8.6-1.1c0.7,0,1.4,0.1,2.2,0.1
			c13.5,0,25.6-6.2,33.1-16.9c0.4-0.6,0.9-1.3,1.3-1.9c1.5,1.7,3.1,3.4,4.9,4.9c5.1,4.4,10.2,6.5,13.3,7.8c0.3,0.1,0.6,0.3,0.9,0.4
			c5.5,2.6,11.2,4,17,4c2.5,0,5-0.3,7.5-0.8c1.7,0.3,3.4,0.4,5.1,0.4c9.9,0,19.3-4.4,25.8-12c1.7-2,3.2-4,4.5-6c3.1,3.3,6,6.1,9,8.5
			c9.9,8.3,20.9,10.2,26.2,11.1c1.8,0.3,3.6,0.5,5.4,0.5c2.6,0,5.1-0.3,7.7-0.9c0.5-0.1,1-0.2,1.5-0.3c0,0,0.1,0,0.1,0
			c0.4-0.1,0.9-0.2,1.2-0.2c11.7-0.7,22.1-5.6,29.3-14.1c3.9,4.1,9.7,9.4,18,12.9l0.5,0.2c4.4,1.9,11,4.6,19.7,5.3
			c0.6,0.1,1.6,0.4,2.2,0.6c2.3,0.6,5.2,1.4,8.5,2c3.2,0.6,6.4,0.8,9.7,0.8c2.8,0,5.6-0.2,8.3-0.6c2.7-0.4,5-1,6.5-1.4
			c0,0,0,0,0.1,0c14.3,0,25.3-6.1,29-8.1c2-1.1,3.9-2.4,5.7-3.9c1.9,1.8,3.9,3.4,6,4.7c6.2,3.8,13.6,6.2,20.8,6.7
			c0.7,0,1.5,0.1,2.3,0.1c6.4,0,12.8-1.7,18.4-4.8c11.6-2.3,21.4-9.7,26.7-19.8l0,0.1c3.1,5.1,9.5,15.7,23.4,20.8
			c1.7,0.6,3.1,1,4.1,1.2c3.5,1.1,7.1,1.7,10.7,1.7c5.1,0,10.2-1.2,14.8-3.3c3.4,1.2,7,1.8,10.8,1.8c1.4,0,2.5-0.1,3.2-0.1
			c0.3,0,0.6,0,0.8,0c2.1,0.2,4,0.3,5.9,0.3c2.6,0,5.1-0.2,7.6-0.5c6.2,3.9,13.5,5.9,21.1,5.9c4.6,0,9.2-0.8,13.5-2.3
			c6.4,5,14,7.8,21.8,7.8c4.7,0,9.3-0.9,13.7-2.8c1.9-0.6,4.9-1.6,8.2-3.4c5.7-3.2,9.6-7.3,10.9-8.7c1.4-1.5,2.5-2.9,3.3-4
			c1.4-1.3,2.9-2.5,4.5-3.9c-3.9,4.5-6.6,10-7.5,16.1c-0.5,3.4-0.8,6.8-0.9,10.2c-0.1,4-0.1,7.8-0.1,11.3l0,1.1
			c0,2.9,0,6.5,0.4,10.3c0.3,3.4,1,6.1,1.6,7.9c2.9,18.4,19.6,32.5,38.6,32.5c6,0,12-1.5,17.2-4.2c0.4-0.2,1.4-0.6,2.1-1
			c1.3-0.6,2.5-1.1,3.7-1.7l0.2-0.1c2.3-1.1,7.7-3.6,12.5-9.2c1.9-2.2,3.5-4.4,4.6-5.9l0.1-0.2c1.4-1.5,2.6-3.1,3.6-4.7l0.5-0.7
			c1.1-1.8,2.7-4.3,4.2-7.3c1.1-2.3,1.9-4.3,2.4-5.7c0.1-0.3,0.2-0.6,0.3-0.9c0.2-0.4,0.6-1.1,0.9-1.7l0-0.1
			c0.8-1.4,1.7-3.2,2.7-5.2c0.9-2,1.6-3.7,2.2-5.2c0,0,0-0.1,0-0.1c0.1-0.3,0.3-0.7,0.4-1.1c3.3-5.4,5.8-10.7,7.8-16.1
			c0.4-1,0.7-2,1.1-3.1l0.1-0.2c0.4-1.1,0.7-2.2,1.1-3.2c0.3-0.8,0.6-1.7,1-2.5c0.7-1.7,1.4-3.5,2.1-5.6c2,1.4,4.1,2.8,6.4,4
			c5.4,2.9,11.1,4.4,17,4.4c5.2,0,10.4-1.2,15.1-3.5c4.9-1,8.7-2.8,10.9-3.8c0.3-0.1,0.6-0.3,0.8-0.4c0.4-0.2,0.8-0.4,1.3-0.5
			l0.1-0.1c3.9-1.6,10.3-4.3,16.5-9.8c1.2-0.8,3-2,5-3.6l1.6-1.3c2.3-1.9,4.9-4,7.6-6.4c1.2,1.5,2.4,2.9,3.8,4.4
			c1.2,1.3,2.3,2.4,3.2,3.3c0.4,0.4,0.9,0.9,1.1,1.1c3.5,4.4,11.4,14.1,26.2,17.2c2.6,0.5,5.3,0.8,7.9,0.8c7,0,14.1-1.9,20.3-5.4
			c1.5,0.4,3.1,0.8,4.7,1.1c2.2,0.3,4.4,0.5,6.5,0.5c5.2,0,10.1-1,14.7-2.9c0.2,0,0.5,0,0.7,0c3.9,0,7.8-0.6,11.6-1.9
			c4.2-1.4,9.7-3.4,15.4-6.3l0.7-0.3c0.1,0,0.2-0.1,0.3-0.1c0.7,0,1.4,0.1,2,0.1c1.7,0,3.4-0.1,5.1-0.3c2.6,0.6,5.2,0.8,7.8,0.8
			c1,0,1.9,0,2.9-0.1c2.5,1.6,6.4,3.9,11.5,5.3c2,0.6,3.7,0.9,5.1,1.1c4.1,1.8,8.5,2.7,13.1,2.7c1.4,0,2.8-0.1,4.1-0.3
			c0.1,0,0.3,0.1,0.4,0.1c4.2,1.5,8.3,2.3,12.5,2.3c5.1,0,12.4-1.1,19.6-6.1c0.1,0.1,0.2,0.2,0.4,0.3c6.5,6,14.1,10,23.2,12.4
			c3.2,0.8,6.4,1.2,9.5,1.2c15.3,0,27.8-9.4,32.3-23.6c2.2,1.5,4.3,2.7,6,3.7l0.1,0c0.4,0.2,0.8,0.5,1.1,0.7c2.5,2.2,7.1,5.9,14.1,8
			c3.8,1.1,7.2,1.6,9.4,1.9c0.2,0,0.6,0.1,0.9,0.1c4.1,1.3,8.3,1.9,12.5,1.9c11.2,0,19.6-4.5,24-6.9l0.4-0.2
			c2.5-1.3,6.9-3.7,11.5-7.6c3,2.1,6.4,4,10.4,5.3c4.1,1.4,8.3,2,12.9,2c2.3,0,4.3-0.2,5.7-0.3l0.3,0c0.2,0,0.5,0,0.7-0.1
			c2.4-0.1,4.5-0.4,5.9-0.6c0.3,0,0.5-0.1,0.8-0.1c3.1-0.2,11.3-0.8,19.5-6.4c1.3-0.3,2.8-0.7,4.4-1.3c0.3,0,0.6,0.1,0.9,0.1
			c6.3,3.3,12.3,4.9,17.5,6.2c2.8,0.7,5.6,1,8.4,1c11.4,0,22.2-5.6,28.9-15c6.6-9.2,8.2-20.6,4.6-31.1c-2-5.9-4.3-12.1-7.8-18.5
			c-6.4-11.7-17.1-18.2-27.7-21.1c0.6-3.4,0.6-6.2,0.6-8c0.1-1.7,0.3-3.8,0.6-5.7c0.1-0.9,0.3-2.1,0.6-3.4l0.2-0.9l0.1-0.3l0.1-0.2
			c0.3-1.3,0.8-3.4,1.1-5.9c0.6-5.3,1.3-10.7,1.9-16c0.5-3.9,0.9-7.9,1.4-11.8c0.2-1.4,0.4-2.8,0.5-4.3l0-0.2c0.3-2.2,0.6-4.5,0.9-7
			c0.2-1.9,0.3-3.5,0.3-4.8c0.6-1.7,1.3-4,1.7-6.9c0.7-4.5,1.2-8.9,1.7-13l0.2-1.8c0-0.3,0.1-0.7,0.1-1c0.4-2.7,0.9-6.6,0.6-11.4
			c-0.1-2.2-0.4-4.2-0.6-6.1c0.4-4.4-0.2-8.9-1.8-13.1l-0.6-1.5l-0.1-0.2c-0.2-0.6-0.5-1.2-0.7-1.8c-3.8-10.9-11.9-19.8-23-25
			c-6.8-3.2-15.1-6.5-25.7-6.6C1225.8,7.6,1225.1,7.6,1224.4,7.6L1224.4,7.6z M385.1,115.3c1-0.2,1.9-0.4,2.9-0.6
			c0.2,1.1,0.3,2,0.4,2.8c0.4,4.2,0.6,8.7,0.8,13.4l0.1,2.2c0.1,2.6,0.2,5.2,0.3,8l0,0.1c0,1.5,0.1,3,0.1,4.5l0,0.2
			c0.2,5.6,0.4,11.2,0.6,16.8c0.1,3.7,0.3,6.9,0.4,9.9c0.1,1.3,0.2,2.5,0.3,3.8c0.1,1.2,0.2,2.5,0.2,3.3c0,0.4,0,0.7,0,1.1
			c-2.2-1.4-4.6-2.6-7.2-3.4c1.5-5.2,1.6-10.9,0.1-16.5l0-0.2l-0.1-0.2c-0.5-2.2-1.4-6.2-3.9-10.7c-0.5-0.9-1-1.8-1.5-2.7
			c-0.1-0.2-0.3-0.5-0.4-0.8c-0.9-2.7-1.7-5.3-2.5-7.8c-1.4-4.7-3.2-8.9-4.8-12.5c3.9-1.6,6.9-3.6,8.8-5.1
			C381.5,119.3,383.4,117.4,385.1,115.3L385.1,115.3z M664.7,238.9c0.2-0.2,0.5-0.4,0.8-0.7c0.9,1.1,1.9,2.2,2.9,3.3
			c-0.1,0.2-0.1,0.3-0.2,0.5c-3.9,0.6-7.6,1.9-11,3.9c0.1-0.1,0.3-0.2,0.4-0.3c2.1-1.9,4.3-3.9,6.8-6.2L664.7,238.9L664.7,238.9z"/>
	</g>
	<path d="M1074.5,219.5c-0.2-3.1-0.6-6-2.6-8.6c-1.3-1.7-2.1-3.7-3.3-5.5c-0.7-1.1-1.7-2.1-3.1-3.6c-1.3,5.4-2.4,9.8-3.5,14.5
		c-1.1-0.4-1.7-0.5-2.1-0.8c-1.8-1.8-3.7-3.6-5.2-5.7c-1-1.4-2.2-3.7-1.7-5c0.8-2.2,2.8-4.1,4.4-5.9c1.6-1.7,3.8-2.8,5.1-4.6
		c1.3-1.9,1.8-4.3,2.4-6.5c1.1-4.2,0.8-5.6-2.7-7.7c-1.6-0.9-2.4-2.1-1.8-4.3c1-3.3-0.5-5.3-3.2-7.1c-2.4-1.6-4.3-3.9-6.4-5.9
		c0.2-0.3,0.4-0.5,0.6-0.8c1.2,0.6,2.4,1.2,3.6,1.8c1.3,0.6,2.6,1.2,4,1.8c3.1,1.4,6.3,0.3,7.9-2.6c1.2-2.1,2.5-4.1,3.3-6.4
		c0.6-1.6,1.1-3.7,0.6-5.2c-0.6-1.8-1.9-3.8-3.5-4.8c-4.7-3.1-9.7-5.7-15.7-4.8c-0.6,0.1-1.3-0.3-1.9-0.4c0-0.2,0-0.5,0-0.7
		c1.6-0.3,3.2-0.6,4.8-0.9c1.5-0.3,3.3-0.1,4.4-0.9c1.6-1.2,2.3-6.2,0.2-7.7c-2.8-2-4.5-4.8-6.5-7.6c-1.4-2-3.6-3.5-5.4-5.2
		c-1.3-1.3-2.6-2.6-3.9-3.9c-0.4-0.4-0.9-0.7-1.4-1.1c-0.3,0.5-0.8,1.1-0.8,1.6c0.1,1.2,0.2,2.1-1.5,2c-0.3,0-0.9,0.8-1.1,1.3
		c-0.6,2,0.1,3.7,1.4,5.3c0.8,1,1.5,2.1,2.4,3.4c-1.5,0.2-2.4,0.6-3.2,0.4c-6.2-1.8-12.2,0-18.3,0.5c-1.9,0.2-2.5-0.3-2.5-2.2
		c0-2.1-0.4-4.2-0.6-6.3c-0.2-1.9-0.4-3.9-0.5-5.8c0-0.4,0.5-1.1,0.9-1.3c1.5-0.7,3.1-1.6,4.7-1.9c3.5-0.6,6.2-2.4,8.8-4.9
		c2,1.5,3.5,0.1,4.9-1c0.6-0.5,1-1.9,0.7-2.5c-0.8-1.3-1.9-2.5-3.1-3.4c-1.6-1.1-3.4-1.8-5.1-2.7c4.1-1.4,8-2.3,11.9-3.2
		c8-1.8,12.6-7,14.6-14.7c0.9-3.3-0.9-6.8-3.8-8.6c-2.5-1.5-4.8-3.2-7.4-4.5c-1.9-1-1.4-1.9-0.6-3.2c1.1-1.8,2.7-3.4,2.1-5.7
		c-0.6-2.2-1.2-4.4-1.9-6.6c-0.1-0.4-0.6-0.8-0.9-1.1c-2.4-2.5-5.6-3.4-8.7-4.6c-4.8-1.8-9.7-2.2-14.7-2.9c-1-0.1-2.3-0.1-3,0.4
		c-2.1,1.5-4.1,3.3-6.2,5.1c3.2,3.4,6.7,4,10.8,3.6c-0.8,2.8-1.1,5.3-2.1,7.6c-1.3,2.9-2.6,5.9-6.6,6.2c-3.5,0.3-7,0.9-10.6,1.3
		c-2.2-2.4,1.5-4.7,0.2-7.6c-3.7,3.1-7.3,6.1-11,9.1c-2-2.1-2.6-5.1-2.8-7.9c-0.2-3-0.7-5.5-3.3-7.2c-2.7-1.8-5.6-2.8-9-2.8
		c-3.5,0.1-5.9,2.2-8.5,3.9c-2.5,1.6-4,3.9-4.3,6.8c-0.1,0.6,0.5,1.7,1,2c2.3,1.1,4.6,0.8,7-1.3c0.8,4.7,1.6,8.9,2.2,13.1
		c0.1,0.5-0.8,1.5-1.5,1.8c-3.4,1.4-6.9,2.7-10.5,3.8c-2.3,0.7-4.4,2.1-7.3,0.8c-3.4-1.5-3.7-0.9-4.4,2.7c0,0.1-0.2,0.2-0.4,0.5
		c-4.4-4-10.2-3-15-3.9c-3-4.4,0.6-7.6,2.2-10.6c1.2-2.2,1.8-3.2,1-5.7c-1.4-5-5.6-6-9.4-7.3c-3.7-1.3-7.6-2.2-11.5-2.5
		c-3.6-0.4-7.3,0-10.9,0.5c-0.8,0.1-1.6,1.5-1.9,2.5c-0.5,1.3,0.3,2.1,1.5,2.6c1.6,0.6,3.2,1.1,4.6,1.9c1.8,1,3.7,2,2.9,4.6
		c-0.5,1.7-1.1,3.4-1.8,5c-2,5.2-4,10.4-6,15.5c-0.1,0.2-0.4,0.3-0.6,0.4c-3.3-2.6-4.7-2.3-6.9,1.5c-0.5,0.9-1.2,1.8-1.5,2.7
		c-2.1,5.7-3,10.8,3.5,15.3c2.7,1.8,4.9,2.1,7.7,0.7c1.7-0.8,3.5-1.2,5.6-1.8c-0.2,0.7-0.3,1.1-0.4,1.6c-0.1,0.7-0.2,1.3-0.3,2
		c0.7,0,1.5,0.3,2.1,0.1c1.5-0.7,2.9-1.6,4.3-2.5c3.1-2,6.1-4,9.1-5.9c1.1,0.9-0.4,3.6,1.9,2.4c2.5-1.3,4.6-3.4,6.9-5.1
		c0.5-0.4,1.1-0.6,1.7-0.9c2.8-1.1,5.1-2.5,6.8-5.1c1.2-1.9,3.2-3.3,5.2-5.3c2,7.7,5.4,13.2,12.9,14.7c-3,14.7,4.8,20.8,18.1,22.6
		c-2,1.3-3.5,2.2-5,3.3c-1.6,1.2-3.1,2.5-4.6,3.8c-3.4,3.1-7.2,3.6-11.4,1.6c-1.5-0.7-4.1,0.7-5,2.3c-2.5,4.4-2.6,9.1-2,13.8
		c0.6,4.6,2.8,8.4,7.1,10.3c3,1.4,6.4,2.2,10,0.6c-0.6,1.2-1,2.6-1.9,3.6c-4,4.3-8.1,8.4-12.2,12.6c-0.4,0.4-1.7,0.4-1.9,0.1
		c-2.6-4.4-7-5.4-11.6-6c-5.1-0.7-10.2-1.4-14.4,2.8c-0.2,0.2-0.6,0.2-0.9,0.3c-2.9,1.6-5.7,3.2-8.6,4.8c-3.1,1.7-6.2,3.4-9.3,5.2
		c-1.4-1.6-2.3-3.2,0-4.9c0.3-0.2,0.3-1,0.4-1.5c0.3-0.8,0.3-1.9,0.9-2.4c5.2-5,10.4-10,15.7-14.9c1.8-1.6,4-2.7,5.9-4.3
		c3-2.4,5.6-5.2,9.4-6.7c3.3-1.3,3.4-3.8,0.4-6c-1.1-0.8-1.4-1.5-1-2.9c0.8-3-0.7-4.9-3.7-5.2c-0.6-0.1-1.3-0.1-1.9-0.3
		c-3.7-0.9-7.4-1.2-11,0.5c-0.5,0.2-1.3,0-2.4,0c2-2.1,3.5-3.9,5.2-5.5c0.4-0.4,1.4-0.1,2.1-0.3c0.5-0.2,0.9-0.6,1.3-1
		c2.7-2.7,5.2-5.5,8-8c3.6-3.2,3.8-3.1,1.8-7.2c-0.6-1.2-1.2-2.4-1.9-3.5c-1.4-2.2-4-1.3-6-1.8c-2.1-0.5-4.5-0.5-6.6-0.1
		c-2.6,0.5-5.1,1.5-7.6,2.6c-4,1.8-7.8,3.9-11.7,5.8c-0.7,0.3-1.7,0.2-2.5,0.2c-2,0-4.1-0.3-6.1-0.1c-1.6,0.1-2.4,1.3-1.7,3
		c1.4,3.1,2.8,6.1,4.3,9.1c0.4,0.9,1.2,1.6,2,2.2c1.7,1.3,3.5,2.6,4.7,3.5c-1.9,5.2-4.5,9.9-5.1,14.9c-0.6,5.3,0.1,11.1,6.1,14.1
		c0.8,0.4,1.5,2,1.4,2.9c-0.7,4.1-3.6,6.6-6.6,9.1c-1.5-2-4-2.2-5.1-0.3c-1.4,2.4-2.3,5.1-3.3,7.7c-0.2,0.4-0.2,1.1,0.1,1.4
		c1.9,2.6,0.3,5.3,0.2,8c0,1.6-0.3,3.2-0.2,4.8c0.1,2,0.8,4,0.8,6c-0.1,6.9,1.8,13.4,3,20c0.7,3.8,3.5,6.3,6.9,6.9
		c2.9,0.5,6.4,0,7.6-3.9c0.3-0.8,1.1-1.5,1.8-2.3c0.6,0.5,1,0.9,1.4,1.2c2.5,1.5,5.2,3,8.2,2c3.8-1.3,7.6-2.7,11.1-4.5
		c3.4-1.8,7.5-3.3,6.9-8.5c0-0.4,0.4-1.2,0.6-1.2c0.5,0,1,0.3,1.4,0.6c1.2,1.1,2.3,2.3,3.4,3.5c2.2,2.2,6.4,2.2,9,0.4
		c0.9-0.6,2.8-0.5,3.7,0.1c2.5,1.7,5,2.2,7.8,0.9c0.6-0.3,1.3-0.5,1.9-0.4c4.6,0.7,8.9,2.2,12.8,4.8c1.5,1,3.1,2.1,4.9,2.6
		c2.9,0.8,6.1,0.5,8.8,2.4c0.6,0.4,2.1,0.4,2.6-0.1c1.6-1.8,3.1-0.6,4.7-0.3c2.9,0.7,5.9,1.2,8.7,2.3c2.1,0.8,3.7,0.6,5.4-0.9
		c1.3-1.2,3-1.9,4.5-2.8c1.8-1,3.8-1.8,5.6-2.9c2.3-1.6,4.4-3.5,6.7-5.1c2.2-1.6,3.9-1.3,5.4,0.3c1.9,2.1,3.7,4.3,5.8,6.2
		c3,2.8,6.4,5.2,9.4,7.9c3,2.7,6.4,4.3,10.2,5.3c3.6,0.9,5.4-0.5,5.6-4.2c0.1-1.4,0.8-2.7,1.3-4c0.3-0.8,0.9-1.5,1-2.3
		C1074.6,223.3,1074.6,221.4,1074.5,219.5z M928.9,197.9c-1.4,1.7-2.8,3.4-3.9,5.2c-2.1,3.2-5.7,3.5-8.9,4.8c-0.2,0.1-1.1-1-1-1.4
		c0.9-4,1.7-8.1,2.9-12c1.7-5.5,5.6-9.1,11-11.1c1.8-0.7,3.3-2,5-2.9c0.7-0.4,1.5-0.7,2.2-1c0.2,0.2,0.3,0.4,0.5,0.6
		C934.5,186.2,933.2,192.7,928.9,197.9z M945.7,205c1.1-1.8,2.3-3.6,3.1-5.5c0.8-1.8,1.8-2.3,3.3-1.1c2.4,1.9,4.5,2,6.8-0.1
		c0.5-0.4,1.5-0.3,2.2-0.3c0.9,0,1.8,0.1,2.6,0.2C960.7,202.3,948.7,206.6,945.7,205z M1014,83c2,0.3,3.5-0.3,4.8-1.6
		c0.3-0.3,0.8-0.4,1.1-0.4c4.8,0.6,9.4-1.1,14-2c0.7-0.1,1.4-0.1,2.9-0.1c-1.5,1.7-2.4,3.1-3.6,4.2c-4,3.6-8,7.1-12,10.6
		c-0.5,0.5-1.2,0.8-1.9,1c-3.8,1.4-4.9,0.5-5.3-3.4c-0.2-1.8-0.8-3.7-1.6-5.4C1011.8,84.2,1012.2,82.8,1014,83z M975.7,103.5
		c-0.5,0.3-1.4,0.5-1.9,0.2c-2.2-1.2-4.2-2.5-6.6-3.9c0.4-0.3,0.9-1.3,1.4-1.3c4.1,0.2,7.4-2,10.9-3.4c3.2-1.3,6.2-3.1,9.4-4.3
		c2.8-1.1,3.3-0.6,3.6,2.5c0.2,2.7,0.4,5.5,0.7,8.5c-1.6,0.6-3.3,1.5-5,1.8c-1.2,0.2-2.9,0.2-3.9-0.5
		C981.3,101,978.5,101.6,975.7,103.5z M985.7,210c-0.4,0.4-1.5-0.1-2.3-0.2c0-0.3,0-0.5,0-0.8c0.8-0.5,1.6-1,2.4-1.6
		c0.2,0.1,0.4,0.1,0.6,0.2C986.1,208.5,986.2,209.6,985.7,210z M981.6,173.8c0.4-2.3,2.1-2.6,3.6-3.1c0.2-0.1,0.9,0.7,0.9,1.2
		c0,0.4-0.4,1.2-0.7,1.3C984.2,173.5,983.1,173.6,981.6,173.8z M980.5,137.1c-2.9,0.8-5.8,1.4-9,2.1c0.6-3.2,3.2-4,5.2-5.2
		c3.7-2.2,7.7-4.1,11.3-6.4c2.3-1.5,3.9-4,7.4-4.4c0,3,0.1,5.8-0.1,8.6c0,0.4-0.9,0.9-1.4,1.1C989.5,134.4,985,135.8,980.5,137.1z
		 M1000.1,166.5c-0.7-1.4-1.3-3.4-3.6-3.7c-1.6-0.2-2.1-2.3-0.8-3.4c2.6-2.2,5.3-4.3,8.1-6.6c1.9,5.1,3.6,9.8,5.1,14.4
		c0.1,0.4-0.5,1.3-1,1.6c-0.7,0.4-1.5,0.3-2.3,0.5C1001.8,170.2,1002,170.1,1000.1,166.5z M1027.3,202.8c-2.5,2-5.1,3.9-7.8,5.7
		c-2.2,1.5-4.7,2.6-7,4c-1.1,0.7-1.9,1.9-2.9,2.9c-0.7,0.7-1.5,1.4-2.3,2.1c-0.3-0.2-0.6-0.4-0.9-0.6c0.8-2.3,1.9-4.6,2.5-7
		c0.5-2.1,0.5-4.4,0.7-6.6c0.2-3.6,0.2-7.3,0.6-10.9c0.2-2,5.2-5.8,7.2-5.8c0.5,0,1,0.5,1.4,0.9c2.1,2.5,4.2,5.1,6.2,7.7
		c1,1.3,1.9,2.8,3,4.1C1029,200.9,1028.3,202,1027.3,202.8z M1046.9,184.1c-0.2,0.5-0.4,1.1-0.8,1.5c-1,1.3-2,2.5-3.1,3.8
		c-0.8-1.2-1.6-2.4-2.4-3.7c-0.5-0.7-1-1.5-1.4-2.2c-1.2-2.3-0.8-3,2.3-2.9c0.4-0.1,1.3-0.2,2.2-0.3
		C1045.9,180.2,1047.5,182.1,1046.9,184.1z M1044.7,160.1c-0.9-0.1-1.9-0.3-2.8-0.1c-2.2,0.3-2.7,1.8-1.4,3.6
		c0.3,0.4,0.5,0.8,1.2,1.8c-3.4,0-6.2,0.1-8.9-0.1c-0.7-0.1-1.5-1.2-1.8-2c-1.3-3.4-2.5-6.7-5-9.6c-2.9-3.4-6.5-5.6-10.7-7.1
		c-0.3-0.1-0.5-0.5-0.7-0.8c2.7-0.5,5.4-0.7,8-1.4c3.2-0.8,6.2-2.1,9.4-2.8c1.7-0.4,3.7-0.3,5.4,0.1c0.5,0.1,0.6,1.8,0.9,2.8
		c-1.2,0.3-1.8,0.4-2.4,0.6c-1.6,0.5-2.2,1.5-1.1,2.9c1.8,2.3,2.3,5.9,5.9,6.6c3.9,0.7,6.4,3.3,9,6.6
		C1047.7,160.7,1046.2,160.4,1044.7,160.1z"/>
	<path class="st1" d="M1247.2,53.5c0.5,3.4,1.1,6.8,1.4,10.3c0.1,2.3-0.3,4.6-0.6,7c-0.5,4.5-1,9.1-1.8,13.6c-0.3,2.1-1.4,4-1.7,6.1
		c-0.4,2.3-0.3,4.7-0.5,7.1c-0.4,3.7-1,7.4-1.4,11.1c-1.1,9.2-2.2,18.5-3.3,27.7c-0.2,1.5-0.6,3-0.9,4.5c-0.4,2-0.8,4.1-1,6.1
		c-0.3,2.8-0.6,5.6-0.8,8.3c-0.1,1.2,0.2,2.4-0.1,3.6c-0.9,4.3-1.9,8.6-2.8,12.9c-0.2,1.2,0.1,2.6,0,3.8c-0.3,2.5-1.1,5.1-1.2,7.6
		c-0.2,3.3,0,6.6,0.3,10c0,0.4,1,1.2,1.4,1.2c1.7-0.1,3.5-0.5,5.2-0.7c1.5-0.2,3-0.3,4.5-0.3c1.9,0,3.8,0.3,5.6,0
		c5.8-1.1,14.8,0.8,18,6.9c2.4,4.4,4.1,9.1,5.7,13.8c1.1,3.2-2.6,6.5-5.8,5.7c-4.8-1.2-9.3-2.5-13.6-5.3c-2.4-1.6-6-1.3-9.1-1.8
		c-4.4-0.6-8.7,0-13,1.5c-2,0.7-4.2,0.9-6.2,1.6c-1.5,0.5-3.2,1.3-4.3,2.4c-1.6,1.7-3.5,2-5.6,2.1c-1.9,0.1-3.9,0.5-5.8,0.6
		c-2.9,0.1-6.1,0.8-8.7-0.1c-2.6-0.8-4.8-3.1-6.7-5.2c-2.6-2.7-4.9-5.8-7-8.9c-1.1-1.6-1.6-3.7-0.2-5.6c0.3-0.4,1.2-1,1.5-0.9
		c2.8,1.6,6.6-0.1,9,2.8c0.3,0.3,0.9,0.5,1.4,0.4c3-0.6,6.1-1.1,9.1-2c0.6-0.2,1.1-1.7,1.1-2.7c0.2-4,0-8.1,0.3-12.1
		c0.2-3,0.8-5.9,1.1-8.8c0.5-4.2,1-8.4,1.5-12.6c0.4-3.3,1-6.7,1.4-10c0.7-5.4,1.4-10.9,2.1-16.4c0.6-4.5,1.1-8.9,1.7-13.4
		c0.7-4.7,1.5-9.4,2.2-14.1c0.8-5.4,1.6-10.7,2.5-16.1c0.8-4.8,1.8-9.6,2.4-14.5c0.5-3.8,0.4-7.7,0.6-11.6c0.1-2.4,0.4-4.8,0.4-7.1
		c-0.1-2.7-0.3-5.5-0.8-8.2c-0.3-1.4-1.4-2.6-3.2-2.2c-1.7,0.4-3.5,0.7-5.2,1.3c-3.8,1.3-9.7-2.7-9.1-6.6c0.4-2.2,1.8-4.8,4.2-5.9
		c4.7-2.2,9.8-2.5,15-2.4c4.8,0.1,9.1,1.8,13.2,3.7c3.1,1.5,6,3.8,7.2,7.4c0.5,1.4,1,2.7,1.5,4.1
		C1247.7,53.3,1247.4,53.4,1247.2,53.5z"/>
	<g>
		<path d="M132.3,106.8c1.9-2.5,3.3-1.8,5.2-0.9c3,1.6,5.8,3.3,7.8,6.2c0.9,1.3,2.8,1.8,4,2.8c1,0.9,1.2,1.9,0.3,3.4
			c-1,1.8-1.3,4-1.7,6c-0.3,1.7-3.6,5.9-5.2,6.7c-2.5,1.2-4.8,2.7-7.1,4.2c-3.2,2-6.3,4.2-9.4,6.3c-0.3,0.2-0.5,0.4-0.8,0.5
			c-2.9,1-5.2,2.2-3.1,5.8c-1,6.3,3,11.6,3.7,17.6c0.2,1.7,1.7,3.2,2.2,5c1,3,1.6,6,2.5,9.1c0.3,1.2,1,2.5,1,3.7
			c0,2.6-4.1,4.3-5.6,2c-2.4-3.8-6.2-2.6-9.5-3.4c-2.3-0.5-4.4-2-6.6-3.1c-1.3-0.7-2.4-1.7-3.7-2.1c-5-1.3-10-2.6-15.1-3.5
			c-3.6-0.6-7.3-1.7-11.1-0.8c-1.4,0.3-3.1-0.5-4.5-0.2c-1.2,0.3-2.8,1.3-3.2,2.4c-0.9,2.4-2.9,4.8-1.1,7.7c2.6,4,5.1,8.1,7.7,12.2
			c0.4,0.6,1.2,0.8,1.6,1.4c2,2.7,4,5.3,5.8,8.1c1.5,2.3,2.8,4.7,4.1,7.2c0.8,1.5,1.3,3.1,2.1,5c2.9-2.5,5.6-4.9,8.4-7
			c2.1-1.7,4.5-3.1,6.8-4.5c0.4-0.3,1.5,0,2,0.4c1.1,1.1,2.1,2.4,3.2,3.6c-0.8,2.3-1.5,4.7-2.5,7.1c-0.6,1.4-1.6,2.7-2.4,4
			c-1.9,3-3.7,6-5.8,8.9c-2.6,3.6-6.5,4.4-10.5,3.9c-2.3-0.3-4.3-0.4-6.3,0.6c-2.6,1.3-5,0-7-1.1c-3.5-1.9-6.8-4.2-10-6.5
			c-2.4-1.7-4.9-3.6-6.9-5.7c-3.1-3.4-5.9-7.1-8.8-10.7c-1.4-1.7-3.2-3.3-4.2-5.2c-1.5-2.7-2.5-5.8-3.8-8.6
			c-1.4-2.8-3.3-5.3-4.4-8.2c-0.8-2.2-0.6-4.8-0.7-7.2c-0.1-3,2.4-4.1,4.1-5.9c4.4-4.7,10.1-5.5,16-6.3c4.7-0.6,9.3-2,14.2-1.8
			c6.2,0.3,12.3,0.4,18.4,1.9c0.7,0.2,1.6,0,2.9,0c-1.1-4.7-2.2-9.1-3.4-13.6c-0.1-0.5-1.2-1.1-1.7-1c-5.5,1.2-11,2.6-16.6,3.7
			c-2,0.4-4.1,0.2-6.2,0.1c-2.8-0.1-5.6-0.2-8.4-0.6c-2.8-0.5-5.3-1.9-6.8-4.5c-0.2-0.3-0.4-0.7-0.3-0.9c1.8-2.6-0.4-4.8-0.6-7.1
			c-0.2-1.6,0.1-2.7,1.7-3.3c1.4-0.6,2.5-0.5,3.4,1.1c2.2,3.9,7.9,4.6,12.1,2.9c4.6-1.9,9.2-3.8,13.8-5.7c2.7-1.1,3.3-2,2.2-4.8
			c-2.2-5.9-4.7-11.8-7-17.7c-1-2.5-1.4-5.3-2.4-7.8c-1.2-3.2-2.6-6.3-4-9.4c-0.2-0.5-1.4-1-1.9-0.9c-2.1,0.8-4,1.9-6.1,2.9
			c-2.3,1.1-4.7,2.1-7,3.2c-3.1,1.5-6.1,3.2-9.7,3.1c-1.3,0-2.6,1-3.9,1.5c-2.1,0.8-3.2-0.8-3.7-2.3c-0.3-0.9,0.6-2.2,1-3.3
			c0.1-0.3,0.5-0.5,0.5-0.7c0.9-4.6,4.8-6.8,7.8-9.7c1-0.9,1.9-2,3-2.8c2.1-1.7,4.3-3.3,6.5-4.9c1.6-1.2,3.3-2.2,4.8-3.5
			c1.4-1.2,1.9-2.8,1.3-4.6c-1.5-4.7-3.4-9.4-4.4-14.3c-0.7-3.7-0.4-7.6-0.2-11.4c0.1-1.1,1.5-2.5,2.7-3.1c2.4-1.1,5-1.7,7.5-2.5
			c4.6-1.5,9-1,13.1,1.4c0.8,0.5,2,0.8,3,0.7c2.9-0.1,5.4,0.8,8,1.9c0.9,0.4,1.8,0.7,2.7,1c0,0.2,0,0.5,0,0.7
			c-1.6,0.4-3.2,0.8-5,1.3c1.6,3.6,2.9,7,4.6,10.3c0.3,0.5,2.1,0.6,3,0.4c3.6-0.7,7-1.8,10.6-2.4c3.9-0.7,7.7-0.1,11.3,1.5
			c2.1,0.9,4.2,1.5,6.6,0.9c2.5-0.7,4.1,0.6,5.7,2.7c1.9,2.4,2.9,5,3.3,7.9c0.2,1,0.1,2.2-0.3,3.1c-2.1,4.6-5.5,8.2-9.9,10.5
			c-1.9,1-4.2,1.4-6.2,2.2c-1.2,0.5-2.2,1.3-3.4,1.8c-0.6,0.3-1.4,0.1-2.2,0.1c0.1-0.8,0.1-1.7,0.5-2.3c0.5-0.8,1.5-1.2,2.2-1.9
			c3.1-2.7,3.3-3.4,2-8.2c-3.3,0.7-6.6,1.4-9.9,2.1c-1.5,0.3-3,0.7-4.5,1c-2.5,0.6-2.1,2.2-1.5,4c1.7,5.2,3.5,10.4,5,15.7
			c0.7,2.5,0.9,5.1,1.6,7.6c0.6,2.1,1.6,4.1,2.3,6.2c0.6,1.8,1.8,2.3,3.4,1c2.4-1.9,4.9-3.8,6.9-6c1.8-1.9,3.2-4.2,1.2-7.1
			c-1.1-1.5,0.1-2.7,2-2.8c2.6-0.1,4.6,0.4,5.4,3.3C131.2,105.5,131.8,106,132.3,106.8z"/>
		<path d="M209.9,173.4c1.9,0,3.5-0.3,4.9,0.1c3,0.8,6,1.8,8.9,2.9c2.7,1,3.8,3.6,5.1,5.9c0.9,1.6,2.4,2.8,3.5,4.2
			c1.8,2.4,3.6,4.9,5.3,7.5c1.5,2.2,2.9,4.4,4.3,6.6c0.3,0.5,0.6,1,0.9,1.4c1,1,2.1,2.9,2.9,2.7c1.4-0.2,3.1-1.5,3.6-2.8
			c2-4.8,3.6-9.7,5.4-14.6c0.8-2.2,1.7-4.4,2.5-6.7c0.6-1.9,1.3-3.9,1.6-5.8c0.4-2.2,0.5-4.6,0.7-6.8c0.2-2.5,0.2-5,0.4-7.5
			c0.4-3.6,2.2-5.1,5.7-4.8c3.5,0.3,4,0.8,4.8,4.3c0.2,0.9,0.8,1.7,1.4,2.5c0.9,1.3,1.1,2.3-0.6,3.1c-1.7,0.8-2.6,3.6-1.8,5.2
			c0.8,1.8,2.3,3.4,2.7,5.3c0.6,2.6,0.8,5.3,0.9,7.9c0,1.1-0.9,2.3,0.4,3.3c0.3,0.2,0.3,0.7,0.4,1.1c0.2,4,0.5,8,0.6,12
			c0.1,3.3,0.2,6.7-0.4,9.9c-0.6,3.3-1.8,6.7-3.4,9.6c-1.5,2.8-3.9,5.3-5.9,7.8c-2.1,2.5-4.9,3.4-8.1,3.5c-2.4,0.1-4.7,0.7-7.1,1.1
			c-0.6,0.1-1.1,0.4-1.7,0.3c-4.3-0.7-8.5-1.7-11.9-4.5c-2.8-2.3-5.3-4.9-7.7-7.6c-1.9-2.1-3.4-4.6-5.3-6.8
			c-3.3-3.9-6.7-7.7-10.2-11.4c-2.5-2.6-5.1-5.1-7.7-7.5c-1-0.9-2.4-1.3-3.7-1.8c-1.6-0.6-3,0.1-3.7,1.5c-1.5,2.8-2.7,5.8-4.1,8.7
			c-0.1,0.1-0.3,0.4-0.2,0.4c1.6,2.5-1.1,3-1.9,4.4c-1.6,2.7-2.8,5.6-4.1,8.4c-2,4.5-4.1,8.9-7.3,12.7c-1.4,1.6-3.5,1.6-4.5,0.6
			c-2.3-2.2-4.7-1.2-6.4-0.2c-2.9,1.6-5.4,1.6-8.1,0.3c-2.6-1.3-5.5-2.1-7.6-3.9c-5.1-4.4-4.8-9.6-2.2-14.8c2-4.1,3.9-8.2,5.8-12.2
			c1.8-3.7,3.6-7.3,5.3-10.9c2.2-5,4.4-10,6.4-15c3.3-8.5,6.3-17.2,9.5-25.7c2.4-6.4,5-12.7,7.3-19.2c2.7-7.7,5.1-15.5,7.9-23.2
			c1.6-4.5,4-8.7,5.6-13.1c1.8-5.1,3.2-10.3,4.6-15.5c0.7-2.7,1.4-5.5,1.8-8.2c0.3-1.6,0.9-3.5-2-4c-1.4-0.2-2.8-2-3.5-3.5
			c-1-2.2,1.4-2.9,2.7-3c4.4-0.6,8.9-0.9,13.3-1c2.7,0,5.5,0.4,8.2,1.1c1.9,0.5,3.9,1.6,5.4,3c3.2,3.1,6.4,6.2,8.9,9.9
			c1.3,1.9,1.2,4.8,1.7,7.3c0.2,1,0.4,2.1,0.5,3.1c0.1,0.4,0.2,0.9,0.1,1.3c-1.1,2.5-0.7,5.3-1.2,7.8c-0.4,2-1.7,3.8-2.9,5.5
			c-1.1,1.6-1.9,3.1-1.4,5.1c0.2,0.6-0.1,1.4-0.4,2c-0.9,1.6-2.1,3-2.8,4.7c-1.1,2.6-1.7,5.4-2.7,8.1c-0.8,2.1-2,4-2.9,6.1
			c-1.4,3.4-2.6,6.9-3.9,10.3c-0.7,1.7-1.6,3.3-2.3,5.1c-1,2.7-1.9,5.4-2.7,8.2c-1.4,4.9-2.6,9.9-4,14.8c-1.1,4.1-2.3,8.2-3.5,12.3
			C209.6,172.7,209.9,173.2,209.9,173.4z"/>
		<path d="M327.9,101.9c0.4,1.7,0.7,3.5,1.3,5.2c1.3,3.6,2.7,7.3,4.2,10.8c2.4,5.5,5.1,10.9,7.5,16.5c1.9,4.3,4,8.6,5.4,13
			c1,3.2,2,6.4,3.1,9.6c0.9,2.7,2.4,4.8,3.7,7.2c0.7,1.4,0.9,3,1.5,4.9c-5.4,2.4-10.8,4.4-16.7,2.8c-4.8-1.3-9.5-2.6-13.8-5.5
			c-2.5-1.7-5.8-2.1-8.8-3c-0.8-0.2-1.7-0.1-2.4-0.3c-1.6-0.6-1.9-0.1-1.9,1.6c0,1.4-0.5,2.9-1.2,4.2c-1.7,2.9-1.1,5.2,1.8,9.2
			c2.5,3.5,4.4,7.5,6.6,11.1c1.1,1.8,2.5,3.3,3.7,5c3.5,5.1,6.9,10.3,10.4,15.4c1.2,1.7,2.4,3.5,4.1,4.8c3.8,3,5.8,7.9,10.4,9.9
			c0.3,0.2,0.7,0.5,0.9,0.8c2.2,4.1,5.7,4.1,9.6,3.4c2.9-0.5,5.9-0.9,8.8-1.5c4.4-0.8,5.3-4.4,5.9-7.9c0.6-3.7,0.7-7.5,1.1-11.3
			c0.1-0.6,0.5-1.2,0.7-1.8c0.2,0,0.4,0.1,0.6,0.1c0.3,5.2,0.7,10.4,1,15.4c3.1,0.8,3.5,1.9,1.8,4.5c-0.4,0.6-0.5,1.8-0.2,2.4
			c0.9,1.9-0.2,3.2-1.4,3.9c-4.8,2.6-9.9,4.6-15.4,4.3c-3.5-0.2-6.6,1.2-9.9,1.7c-2.7,0.4-5.6,0.4-8.3-0.1c-4.6-0.8-9-2.7-13.6-3
			c-4.1-0.2-7.4-1.7-10.9-3.2c-3.5-1.5-6.1-3.9-8.6-6.7c-2.5-2.8-5.6-4.9-8-7.7c-3.2-3.8-6.2-7.8-9-11.9c-1.2-1.8-1.8-4.1-2.8-6
			c-0.4-0.8-1.4-1.4-1.7-2.2c-1.7-3.7-3.5-7.4-4.9-11.3c-0.9-2.4-1.8-5-1.7-7.5c0.1-3.7,0.3-7.7,1.9-10.9c1.5-3,3.2-6.7,7.6-7.2
			c1.4-0.2,2.7-1.4,4-2.3c3.5-2.4,7.4-3.5,11.4-4.4c3.9-0.9,7.5,0,11.3,0.5c0.5,0.1,1.1,0,2,0c-2-5.9-3.9-11.6-5.8-17.3
			c-1.6-4.6-3-9.2-4.8-13.7c-1.6-4.1-3.3-8.1-5.2-12.1c-0.8-1.6-2.5-1.4-3.9-0.8c-2.3,0.9-4.6,1.8-6.8,2.8c-1.4,0.7-2.6,2.2-4,2.4
			c-2.3,0.3-4.9,0.9-6.7-1.6c-0.4-0.5-0.8-1.5-0.6-2c1.1-2.2,2.1-4.8,3.8-6.4c3.2-3.1,6.7-5.7,10.3-8.3c1.5-1.1,1.5-1.8,0.7-3.3
			c-2.2-4.1-4.3-8.3-6.2-12.5c-1.5-3.5-2.7-7.1-4.2-10.9c-0.7,0.5-1.2,0.8-1.7,1.2c-2,1.7-4,2.8-6.9,2c-2.5-0.7-3.1-1.2-3.1-3.9
			c-0.1-4.1,1.4-7.7,2.6-11.5c1.6-5.1,5.6-7,9.8-9.1c4.4-2.1,8.7-1.7,13.3-0.7c2.6,0.5,3.9,2.3,5.5,3.9c1.8,1.9,3.7,3.7,5,5.9
			c2.1,3.5,3.8,7.2,5.6,10.9c1.4,2.8,2.6,5.7,3.8,8.6c0.8,2,1.1,4.2,1.7,6.3c0.4,1.4,1.3,1.9,2.8,1.6c3.2-0.7,6.4-1.2,9.5-1.9
			c0.9-0.2,2-0.6,2.6-1.2c0.4-0.4,0.5-1.5,0.4-2.2c-0.4-1.9-1-3.8-1.6-5.7c-0.3-0.8-0.5-1.7-1-2.4c-1.1-1.6-0.7-2.7,1-3.2
			c5-1.4,9.7-0.8,13.7,2.9c2.1,2,4.4,3.7,6.6,5.6c2.1,1.8,4.3,3.5,6.1,5.6c1.8,2.1,2.6,4.8,2.1,7.6c-0.4,2.2-1,4.4-2.9,5.8
			c-0.7,0.6-2,1.2-2.7,1c-4.4-1.4-8.6-0.1-12.9,0.4c-4.1,0.4-8,1.4-12.1,2.2C331.3,100.9,329.8,101.4,327.9,101.9z"/>
		<path d="M380.5,67c1.4-3.7,2.5-6.8,3.6-9.8c0.9-0.4,1.9-0.9,2.9-1.3c3.1-1.3,6.3-2.5,9.6-0.7c3,1.6,4.9,4.3,6,7.5
			c0.2,0.7,0.7,1.5,1.2,2c3.1,2.3,4,5.7,2.7,9.3c-0.4,1.2-0.2,2.7-0.3,4c-0.4,2.8-2,4.2-4.7,4.1c-4.6-0.1-8.4-3.5-9.4-7.9
			c-0.5-2.3-1.3-4.6-2.1-6.9c-0.2-0.6-1.5-1.5-1.9-1.3c-0.7,0.4-1.4,1.3-1.7,2.1c-0.7,1.6-1.5,3.2-1.6,4.8c-0.1,1.6,0.4,3.3,0.8,5
			c0.9,4.1-2.2,7.5-6.5,7.7c-4.2,0.2-7.6-1-10.1-4.4c0-0.1-0.1-0.1-0.1-0.2c-0.4-5.4-5.1-6.5-8.7-8.6c-3-1.8-3.3-4.8-1.3-7.6
			c3.2-4.6,7.6-4.7,12.4-4.3c2.8,0.2,4.6,1.6,6.1,3.7C378.1,65,379.1,65.7,380.5,67z"/>
		<path d="M139.1,58c1.1-4,3-7.3,6.3-9.5c2.2-1.5,4.3-3.2,7.4-3c1.2,0.1,2.5-0.8,3.8-0.9c3.9-0.4,5.8,2.1,7.3,5.2
			c1.6,3.2,3.7,6.2,3,10.1c-0.2,1.2,0.8,2.5,1.2,3.9c0.9,3.2,1.7,6.5,2.5,9.7c0.6,2.6-0.8,4.2-3,4.7c-2.2,0.5-2.5,2.3-3.1,3.8
			c-1.1,2.7-2.8,3.3-5.6,2.3c-4-1.3-5.1-4.7-6.2-8c-1.6-4.7-2.6-9.6-4.1-14.3c-0.3-0.9-2-2.1-2.9-1.9
			C142.9,60.7,141.1,59.4,139.1,58z"/>
		<path d="M178.8,45.3c3.3,0,4.6,1.4,5.5,5.5c0.6,2.7,1.6,5.2,2.4,7.9c0.3,1,0.3,2.1,0.9,2.9c0.8,1.3,1.4,2.8,3.6,2.9
			c1.7,0.1,3.9,4.9,3.3,6.7c-1,3.1-2.3,6.2-3.2,9.4c-0.5,1.8-1.4,2.8-3.3,2.6c-0.1,0-0.3,0.1-0.4,0.2c-5.5,0.9-9.1-1.3-10.7-6.8
			c-1.8-5.9-3.7-11.7-4.9-17.7c-0.5-2.8-1.4-4.8-3.6-6.4c-1.5-1.1-1.3-2.4-0.1-3.7c2.3-2.4,5.4-3,8.5-3.4
			C177.3,45.2,178,45.3,178.8,45.3z"/>
	</g>
	<path d="M756,157.4c3.1-0.1,5.1-1.4,6.5-4.1c0.5-0.9,1.3-1.6,2.1-2.3c1.6-1.5,3.4-2.8,4.9-4.3c1.2-1.2,2.1-2.6,3.2-3.9
		c0.4,0.2,0.7,0.4,1.1,0.6c0.1,1,0.2,2.1,0.3,3.1c0,0.4-0.3,1-0.1,1.3c1.5,2.5,3,5,6.1,5.9c2.7,0.7,5.9,0.2,6.6-1.7
		c1.3-3.2,3.8-3.9,6.7-4.3c2.2-0.3,4.5-0.3,6.7-0.8c4.2-1.1,8.4-2.5,12.5-3.7c0.7-0.2,1.6,0.1,2.4,0.1c0,0.3,0,0.5,0.1,0.8
		c-0.4,0.3-0.8,0.7-1.3,0.9c-2,1-4,2-6,3c-6.3,3.3-12.4,7.1-19,9.9c-4.9,2.1-10.3,2.8-15.5,4.2c-1.1,0.3-2.2,0.5-3.2,1
		c-2.4,1.4-4.7,3-7.1,4.5c-3.5,2.3-4.9,5.4-4.7,9.6c0.2,4.3,2.9,6.6,6.3,7.6c2.9,0.8,6.1,0.2,8.8-2.1c1.5-1.3,3.8-1.7,5.7-2.6
		c0.2,0.3,0.4,0.6,0.6,0.9c-0.8,1.1-1.7,2.1-2.3,3.2c-2.8,4.9-5.7,9.8-8.2,14.8c-1.8,3.7-3.6,7.5-4.3,11.5c-0.9,5.6-1.5,11.4,2,16.6
		c0.5,0.8,0.1,2.4,0.8,3c1.5,1.4,3.2,2.6,5,3.6c1.7,0.9,3.6,1.1,5.3-0.4c0.8-0.7,1.8-1.9,2.5-1.7c3.5,0.7,6.3-1,9.3-2.3
		c3.6-1.6,7.3-2.8,10.2-5.6c1.7-1.6,3.9-2.7,5.7-4.2c3.5-2.8,7-5.6,10.1-8.7c3.1-3.1,5.7-6.6,8.6-9.8c1-1.1,2.1-2.1,3.2-3.1
		c1.8-1.8,3.3-3.9,5.4-5.1c1.4-0.8,3.5-3.2,5.3-1c3.5,4.4,8,7.8,11.1,12.7c2.3,3.7,4.9,7.2,7.5,10.7c1,1.4,2.2,2.8,3.4,4.1
		c1.9,2,4,3.8,5.7,5.9c2.4,3,4.6,5.7,8.9,6.6c5,1.1,12-3.1,12.4-8.2c0.2-3.1,0.3-6.1,0.4-9.2c0.2-4.3,0.4-8.6,0.4-12.8
		c0-2.9,0-6-3.7-7c-0.5-0.1-0.9-0.7-1.5-0.8c-1.1-0.3-2.5-1-3.4-0.6c-1.5,0.6-2.4,1.9-2.2,3.9c0.2,2.1,0.1,4.3,0.1,7
		c-1.6-1-2.9-1.6-3.9-2.5c-3.8-3.2-7.5-6.6-11.3-9.7c-1.3-1.1-2.9-1.7-4.4-2.5c-3.6-1.8-7.1-4.1-11-5.3c-4.4-1.3-6.4-5-9.8-7.4
		c1.8-0.3,3.3-0.5,4.7-0.8c3.5-0.8,7-1.7,10.5-2.3c1.9-0.3,3.9-0.5,5.8-0.3c1.9,0.2,3.7,0.7,5.6,1.2c0.6,0.1,1.3,0.4,1.6,0.9
		c1.5,2.3,5.1,3.7,7.7,2.9c1.9-0.6,3.3-1.4,2.8-3.8c-0.2-0.8-0.2-1.7-0.4-2.5c-0.5-1.5-0.9-3.1-1.7-4.6c-1.6-3-3-6.3-5.2-8.9
		c-1.9-2.4-4.7-4-7.2-5.9c-3.3-2.5-7-3.7-11.1-4.2c-2.5-0.3-5.1-0.3-7.7-0.5c-0.7-0.1-1.3-0.5-2.1-0.8c0.4-0.5,0.6-0.8,0.7-0.9
		c4.2-1.3,6.6-6.1,11.4-6.2c0.4,0,0.8-0.3,1.1-0.5c2.8-1.8,5.6-3.6,8.4-5.4c1.5,1.2,2.9,2.5,4.4,3.6c1.6,1.2,3.2,2.3,4.8,3.4
		c-1.5,3.3-1.5,3.3,1.9,4.1c0.3,0.1,0.5,0.5,0.8,0.5c1.2,0,2.4,0,3.6-0.3c1.9-0.5,3.8-1.6,5.7-1.9c4.4-0.7,8.9-4.9,9.6-9.3
		c0.2-1.2,0.4-2.4,0.5-3.6c0-1.3,0.1-2.8-0.4-3.9c-1.4-3.3-4.4-5.3-7.3-7.2c-3.1-2.1-6.5-3.9-9.7-5.8c-1.5-0.9-3-1.8-4.4-2.9
		c-2.3-1.8-4.3-4-6.7-5.5c-7.4-4.7-14.4-9.9-20.1-16.6c-0.9-1-1.7-2.3-2.8-3c-4.5-2.8-9-5.7-13.9-7.9c-4.2-1.9-8.1-4.4-12.7-5.4
		c-0.4-0.1-0.8-1-0.8-1.5c0-0.8,0.3-1.6,0.7-2.3c2.9-4.6,2.5-10.2,4.6-15c0.2-0.5,0-1.3-0.3-1.9c-1.3-2.3-2.5-4.7-5.4-5.1
		c-1.8-0.3-3.6-0.6-5.4-0.4c-3.1,0.2-6.3,0.4-9.2,1.4c-3.8,1.3-7.3,3.5-10.9,5.2c-2.9,1.4-3.2,4.6-0.8,6.8c2.2,1.9,4.3,3.8,6.6,5.8
		c-0.1,0.3-0.3,0.8-0.6,1.3c-2.1,3.7-4.3,7.2-6.1,11c-3.8,8-7.3,16.1-12.2,23.6c-2.2,3.3-4.2,7-5.4,10.8c-1.4,4.3-4,7.8-6,11.8
		c-0.4,0.7-1.1,1.3-1.8,2.1c-0.9-1.2-1.7-2.2-2.3-3.2c-1.2-1.9-2.7-1.6-3.8-0.3c-1.6,2.1-3.3,4.4-3.9,6.8c-1.1,4.3-1.4,8.8-2,13.2
		c-0.3,1.8-0.6,3.6-1,5.7C749.7,152.5,756,157.4,756,157.4z M795.8,205c-0.2-0.2-0.3-0.4-0.5-0.6c1.1-2.8,2.3-5.5,3.4-8.3
		c2-4.8,4.3-9.5,5.8-14.5c1.8-6.3,1.8-6.6,8.3-6.9c1.5-0.1,3.1-0.4,4.6-0.3c3,0.2,5.9,0.5,8.9,0.9c0.4,0.1,0.8,0.7,1,1.2
		c1.2,2.5,2.3,5.1,3.6,8C820.7,192.8,807.4,197.4,795.8,205z M830.4,120.3c-4.1,0.5-8.3,1.1-12.4,2c-3.4,0.7-6.9,1.4-10.2,2.6
		c-7.9,3-15.7,6.2-23.8,9.5c-1-2.3-0.8-3.7,0.9-5.4c2.6-2.7,4.9-5.9,6.8-9.2c3-5,5.6-10.2,8.2-15.3c0.9-1.8,1.5-3.8,2.2-5.8
		c1.5-4.4,3.1-8.7,5.9-12.5c13.9,9.7,25.6,21.8,37.9,32.8C840.5,119.3,835.4,119.7,830.4,120.3z"/>
	<path class="st1" d="M749.3,150c-1.2-1.1-1.8-1.8-2.6-2.3c-1.4-1-2.8-1.9-4.2-3c-2.8-2.2-6.5-2.4-9.4-0.3c-1.5,1-2.8,2.3-4.5,2.9
		c-3.4,1.2-5.8,3-7,6.6c-1.4,4.2-3.4,8.2-5.2,12.2c-2.1,4.6-4.1,9.2-6.5,13.6c-1.1,2-2.9,3.7-4.7,6c-0.6-2-0.9-3.3-1.3-4.6
		c-0.9-3.5-1.9-7-2.8-10.5c-0.4-1.6-0.5-3.3-1.1-4.8c-0.4-1.2-1.8-2.3-1.8-3.4c-0.2-4.5-3.5-7.4-5.4-10.9c-1.1-2.1-2.8-4.1-4.8-5.3
		c-4.2-2.5-8.8-3.8-13.7-3.3c-2.8,0.3-5.8,0.6-8.3,1.8c-2.4,1.2-4.2,1.1-6.3-0.1c-6.1-3.5-12.9-4.1-19.5-3.6
		c-5,0.4-9.8,2.5-13.9,5.7c-2.4,1.9-4.9,3.9-7.3,5.9c-0.3-0.1-0.5-0.2-0.8-0.3c-0.1-4.8-0.3-9.5-0.4-14.3c0-1.7-0.6-3.8,0.2-5.2
		c1.2-2.1,1-4.2,1.2-6.3c0.1-1.6,0.5-3.2,0.8-4.8c0.9-4,1.8-8.1,1.2-12.3c-0.4-2.4-0.9-4.7-1.1-7.1c-0.2-2.3,0-4.7-0.1-7.1
		c-0.4-6.4-0.7-12.8-1.3-19.2c-0.7-8.1-3.2-15.3-11-19.6c-4.8-2.7-9.6-4.6-15.2-4c-1.3,0.1-1.9,0.4-2.4,1.8c-0.9,2.4-2.1,4.8-3.6,7
		c-2.5,3.6-2.9,6.4-0.3,9.2c1.1,1.2,3.2,1.6,4.9,1.8c1.3,0.2,1.9,0.3,2,1.7c0.2,4.5,0.6,9,0.8,13.6c0.1,2.7-0.3,5.4-0.2,8.1
		c0.1,2.9,0.6,5.8,0.8,8.7c0.5,8.6,1,17.1,1.5,25.7c0.2,3.9,0.4,7.7,0.4,11.6c0,7.3-0.2,14.6-0.4,21.9c0,2,0.2,4-1.9,5.3
		c-0.6,0.4-0.9,1.3-1.2,2.1c-2,5-3.8,10.1-5.9,15.1c-0.8,2.1-2.1,4-3.1,6c-0.7-2.2-0.9-4.3-1.1-6.4c-0.2-3.1-0.4-6.2-0.5-9.3
		c0-1,0.5-2,0.2-2.9c-1.3-4.3-0.6-8.7-0.7-13c0-2.2-0.3-4.6-1.3-6.5c-2.4-4.7-6.2-7.9-11.8-8.1c-1.9-0.1-4.2-0.7-5.4,1.2
		c-1.1,1.7-1.9,3.8-2.2,5.8c-0.9,5.6-1.6,11.2-2,16.8c-0.4,6.3-0.2,12.6,0.5,18.9c0.5,4.9,0.9,9.8,1.4,14.7c0.2,1.7-0.7,2.8-2,3.5
		c-3.2,1.8-6.3,3.6-9.5,5.3c-0.5,0.3-1.5,0.5-1.7,0.3c-1.3-1.6-3.1-2.9-3-5.5c0.4-6.8,1.7-13.5,0.9-20.3c-0.2-1.9,0.5-3.8,0.5-5.8
		c0-2.4-0.3-4.7-0.4-7.1c-0.2-3.6,0.2-7.3-0.7-10.7c-1.1-4.1-2.1-8.2-2.1-12.4c0-0.4-0.4-1.1-0.7-1.2c-2-0.5-3.9-1-5.9-1.2
		c-3.1-0.4-5.1,1.6-7.3,3.3c-6,4.7-9.6,10.8-11,18.2c-0.1,0.7,0.5,1.7,1,2.4c0.2,0.2,1.3-0.3,1.9-0.6c0.6-0.3,1.2-0.7,1.7-1
		c0.2,0.7,0.5,1.3,0.5,2c0.1,4.4-0.6,8.9,0.2,13.2c1.1,5.4-3,8.1-4.6,12.7c-0.3-2.1-0.4-3.5-0.7-5.6c-3.5,2.9-2.8,7.7-6.5,10.3
		c-0.8-1.4-1.5-2.9-2.4-4.2c-4.1-5.6-8.2-11.2-12.3-16.8c-0.6-0.8-1.6-1.5-2.1-2.4c-1.5-2.5-2.9-5.2-4.4-7.7
		c-1.7-2.8-3.7-5.5-5.4-8.4c-2.3-4-4.4-8.2-6.7-12.2c-2.3-4.1-4.9-8.1-7.3-12.2c-0.3-0.5,0.1-2,0.4-2.1c4.3-0.9,7.7-3.7,11.5-5.6
		c3.3-1.6,7.2-2.1,9.6-5.4c1-1.3,2.3-2.4,3.6-3.5c1.7-1.3,3.7-2.3,5.2-3.8c3.7-3.4,8.1-6.2,10.9-10.6c1.9-3,4.2-5.7,5.8-8.8
		c1.4-2.7,2.6-5.7,3.1-8.7c0.8-4.7,1.6-9.7-0.9-14.1c-3.5-6.1-6.7-12.6-13.4-16.2c-2.3-1.2-4.4-2.9-6.8-3.7
		c-4.4-1.5-8.9-2.9-13.5-3.5c-5.7-0.7-11.5-0.2-16.7,2.5c-5.4,2.8-10.6,6.1-15.8,9.3c-1.6,1-2.8,2.5-4.3,3.8c-1.8,1.5-3.7,3-5.8,4.6
		c-0.6-1.2-1.3-1.9-1.4-2.8c-0.3-2,0-4.1-0.4-6.1c-0.7-3.3-1.2-6.7-2.7-9.7c-1.8-3.6-4.4-6.8-8.1-9c-2.4-1.4-4.7-2.1-7-0.7
		c-3.4,2.1-6.8,4.3-9.7,6.9c-3.4,3-6.3,6.5-9.4,9.8c-1.5,1.6-1.3,3.3,0.9,4c2.5,0.8,5.2,1.2,8.2,1.8c0,0.2,0.2,0.8,0.2,1.5
		c0.3,3.7,0.6,7.3,0.9,11c0.2,2.3,0.3,4.7,0.4,7c0.1,4.8,0,9.6,0.4,14.4c0.3,4.5,1.4,9,1.8,13.5c0.5,5.6,0.7,11.3,1,16.9
		c0.2,4.4,0.3,8.7,0.4,13.1c0.2,5.6,0.4,11.2,0.6,16.9c0.1,3.2,0.2,6.3,0.4,9.5c0.1,2.8,0.5,5.6,0.5,8.4c0,4.7,0.1,9.3-0.2,14
		c-0.2,3.9-0.8,7.7-1.5,11.6c-0.6,3.5-1.5,7-2.2,10.5c-0.7,3.6-1,7.2-1.8,10.7c-0.8,3.5-0.5,6,2.4,7.8c2,1.2,4.4,2,6.7,2.1
		c1.8,0.1,4.1-0.6,5.3-1.8c1.8-1.8,3.6-2.2,5.8-2.2c3.9,0,7.4-2.3,8.1-6.2c1.3-7.1,1.9-14.2,1.5-21.4c0-1.1,0.3-2.5-0.2-3.3
		c-1.6-2.4-1.3-5.1-1.6-7.7c-0.1-0.8,0.3-1.7,0.3-2.6c-0.1-3.9-0.5-7.8-0.5-11.7c0.1-4.2,0.6-8.4,0.9-12.6c0.3-4.9,0.6-9.8,0.9-14.7
		c0.2-2.7,0.5-5.3,0.7-8.2c0.6,0.2,0.9,0.3,1.1,0.5c0.6,0.5,1.2,0.9,1.6,1.5c3.9,5.6,8,11.2,11.6,17c1.9,3,3.1,6.4,4.7,9.5
		c1.7,3.5,3.5,7.1,5.2,10.6c1.2,2.6,2.2,5.3,3.7,7.7c2.5,4.2,5.4,8.1,8,12.2c2.9,4.6,5.7,9.2,8.5,13.9c1.7,2.8,3.3,5.7,5.1,8.5
		c2.2,3.6,4.2,7.5,8.5,9.1c0.9,0.3,1.8,0.4,2.7,0.8c2.6,1,5.2-0.4,6.4-2.8c1.3-2.7,3-5.3,4.6-7.8c1-1.5,1.5-2.8,0.8-4.5
		c-1.6-3.9-1.3-7.9-0.7-12.1c0.6-3.9,2.4-7.1,3.7-10.6c0.4-1.1,1.4-2.1,2.4-3.5c0.3,1,0.4,1.2,0.4,1.4c0.3,8.6,0.5,17.2,0.8,25.9
		c0.2,8.4,2.2,9.5,8.1,12.6c0.7,0.4,1.7,0.1,2.5,0.1c1.1,0,2.2-0.3,3.3-0.2c7.1,0.9,13.8,0.4,19-5.5c1-1.1,2.3-3,4.4-1.8
		c0.4,1.9,0.9,3.7,1.2,5.5c1.3,7.1,9.2,9.5,14.2,6.2c0.9-0.6,1.5-1.4,2.3-2.2c0.7-0.7,1.8-1.3,2.2-2.1c0.9-2.2,1.5-4.5,2.1-6.9
		c1-3.5,2.3-6.9,2.6-10.5c0.2-1.9-0.1-3.8,0.7-5.6c0.8-1.9,1.7-3.7,2.4-5.7c1.8-5.7,4-11.3,2.7-17.4c-0.2-0.7,0.3-1.6,0.4-2.4
		c0.3-2.2,0.6-4.4,1-6.6c0.1-0.6,0.3-1.2,0.5-1.8c0.6,1.7,0.6,3.2,0.6,4.7c0,3.7,0,7.5-0.1,11.2c-0.1,4.7-0.5,9.4-0.3,14.1
		c0.2,7.6,1,15.2,1.2,22.8c0.1,4.8,1.4,8.6,5.8,11c1,0.5,1.8,1.4,2.6,2.2c1.8,1.8,3.7,2.6,6.2,1.3c1.4-0.7,3.1-0.8,4.5-1.6
		c1.4-0.8,2.7-2,3.8-3.2c1.1-1.2,1.8-2.7,2.9-3.8c3.1-2.9,6.4-5.6,9.7-8.4c0.4-0.4,0.9-0.6,1.4-1c1.5-1.2,2.9-2.4,4.4-3.6
		c2.1-1.9,4.1-3.8,6.2-5.7c1-1,2.2-1.9,3-3.1c1.3-2,2.3-4.2,3.5-6.3c3.6-6.2,7.3-12.3,11-18.5c3.8-6.3,5.7-13.5,7.9-20.4
		c0.5-1.7,0.6-3.6,1-6.1c0.6,1.6,1,2.4,1.3,3.3c1.7,4.5,3.3,9.1,5,13.6c1,2.7,2.2,5.2,3,7.9c1,3.5,1.7,7,2.7,10.5
		c1.1,4.3,2.6,8.5,3.5,12.8c1,4.9,3.1,8.8,7.4,11.6c1.8,1.2,3.2,0.2,4.7-0.1c1.5-0.3,1.9-1.5,1.9-3c-0.1-1.8,0.3-3.5,2.1-4.5
		c0.6-0.3,0.9-1.1,1.3-1.7c1.7-3.1,3.3-6.3,5-9.4c0.3-0.6,1.2-1,2.2-1.7c-0.7,3.2-1.2,5.7-1.9,8.2c-1.4,4.7-3.1,9.3-4.3,14
		c-1.7,6.9-2.8,13.9-4.5,20.7c-1.2,4.7-3.1,9.2-4.8,13.8c-2.5,6.6-5.2,13.2-7.8,19.8c-0.7,1.9-1.5,2.4-2.8,0.1
		c-0.6,0.9-1,1.9-1.6,2.3c-0.6,0.4-2,0.4-2.2,0c-1.8-2.6-3.4-5.4-5.2-8c-0.4-0.5-1.2-1-1.9-0.9c-0.5,0-1.3,0.8-1.3,1.3
		c-0.3,2.2-0.5,4.4-0.6,6.7c-0.1,3.3-0.1,6.7-0.1,10c0,3,0,5.9,0.3,8.9c0.2,1.8,1.1,3.5,1.2,5.3c0.4,5.3,7.2,9.2,11.9,6.7
		c2.2-1.2,4.6-2.1,6.8-3.1c1-0.5,2.1-0.9,2.8-1.7c1.6-1.8,2.9-3.9,4.4-5.9c0.4-0.5,0.9-0.9,1.3-1.4c1.1-1.7,2.2-3.4,3.1-5.2
		c1-2,1.6-4.1,2.5-6.1c1.1-2.4,2.5-4.6,3.6-7c1.3-2.9,2.2-6.1,3.9-8.7c2.2-3.5,4-7.1,5.4-11c0.8-2.3,1.6-4.5,2.4-6.8
		c1-2.7,2.1-5.3,3-7.9c0.7-2.2,1.2-4.5,1.9-6.7c2.1-6.7,4.2-13.4,6.6-20c1.2-3.2,0.8-6.9,3.4-9.6c0.3-0.3,0.4-0.9,0.4-1.4
		c-0.7-4.3,1.7-7.9,2.6-11.8c0.7-3.1,2.7-5.8,4.1-8.8c0.2-0.4,0.4-0.8,0.3-1.1c-0.9-3.7,1.3-6.5,3-9.4c0.4-0.8,0.8-1.6,1-2.4
		c1.2-4.3,2.3-8.7,3.4-13c0.1-0.5,0.5-1.1,0.9-1.2L749.3,150z M469.6,113.9c-0.2-0.2-1.5,0.6-2,1.2c-3.6,4.2-8.7,5.6-13.6,7.6
		c-1.9,0.7-3.7,1.5-5.5,2.4c-2,0.9-3,0.5-2.9-1.7c0-2.2,0.4-4.5,0.4-6.7c0-4.6-0.1-9.1-0.1-13.7c0-2.7,0-5.3,0-8
		c0-1.1-0.4-2.2-0.3-3.3c0.1-2,0.1-3.8,1.5-5.7c2.3-3,4.3-6.1,7.3-8.5c4-3.2,7.5-7.1,11.7-10.1c2.9-2,6.5-2.9,9.7-4.2
		c4.1,0.5,7.6,1,11.1,1.5c0.7,0.1,1.4,0.6,1.8,1.1c3.7,4.7,5.4,10,5.5,16c0.2,6.9-3.5,12-7.2,17c-3.5,4.8-7.7,9.1-12,13.3
		C473.9,113.3,472.4,116.2,469.6,113.9z M643.2,169.9c-2.2,6.1-4.4,12.2-7,18.2c-1.5,3.5-3.8,6.6-5.8,9.8c-2.9,4.8-5.8,9.5-8.7,14.3
		c-0.7,1.2-1.5,2.4-2.2,3.6c-0.3-0.1-0.6-0.2-1-0.3c-0.4-4.5-0.8-8.9-1.1-13.4c-0.2-3.1-0.2-6.2-0.1-9.2c0.1-5.1,0.4-10.2,0.5-15.3
		c0-1.6,0.2-3.2-0.2-4.7c-0.9-3.5,1.9-5.7,2.9-8.6c0.1-0.3,0.3-0.6,0.6-0.8c4-2.6,6.3-7.3,11.1-9c1.2-0.4,2-2,3.2-2.3
		c3.7-1,6.7,1,7.9,4.8C644.9,161.2,644.7,165.6,643.2,169.9z"/>
	<path class="st1" d="M1189.8,106.5c-0.9-5-1.7-9.8-3.9-14.4c-1.2-2.6-2.7-5.2-4-7.7c-1.8-3.5-3.3-7.1-5.3-10.4
		c-1.6-2.7-3.6-5.1-5.6-7.8c3.3-1.7,6.6-7.7,6.5-11c-0.1-1.5,0.1-3,0.3-4.5c0.4-3.5-0.9-5.7-4.2-7.1c-0.4-0.1-0.7-0.4-1-0.6
		c-1.9-1.4-4.6-1.4-5.7,0.6c-2.5,4.3-6.5,6.3-10.7,8c-1.2,0.5-2.6,0.8-3.9,0.7c-3-0.2-5.9-0.7-8.9-1.2c-1.4-0.2-2.9-0.5-4.1-1.2
		c-3.1-1.8-6.2-3.3-9.8-2.9c-2.5,0.2-4.9,0.8-7.3,1.1c-5.2,0.6-9.8,2.4-13.4,6.5c-0.4,0.4-0.9,1.2-0.7,1.6c0.2,0.4,1,0.7,1.6,0.9
		c2.2,0.4,2.1,0.6,0.9,2.6c-2.1,3.3-4.2,6.7-5.6,10.4c-1.6,4.2-2.4,8.6-3.6,13c-1.2,4.3-2.5,8.5-3.6,12.8c-0.4,1.6-0.6,3.3-0.9,5
		c-1.1,5.6-2.2,11.1-2.4,16.9c-0.1,4.7-1.3,9.4-1.8,14.1c-0.3,2.7-0.1,5.5-0.4,8.2c-0.6,6.1-0.7,12.2,0,18.3c0.3,3,1,5.9,1.4,8.9
		c0.4,2.9,0.3,6,1,8.8c0.8,3.3,2.3,6.4,3.4,9.7c1.1,3.1,2.1,6.2,3.4,9.2c1.1,2.6,2.7,4.9,3.6,7.6c1.9,5.7,6.1,9.5,10.2,13.3
		c3.1,2.8,7,4.6,10.5,6.9c1.6,1.1,2.9,2.9,4.6,3.4c3.5,1,7.3,0.9,10.7,2.1c5.3,1.9,9.7-0.7,13.7-2.9c3.9-2.1,8.1-4.7,10.2-9.2
		c0.3-0.5,0.7-1.1,1.3-1.4c2.1-1.4,3.4-3.3,4.3-5.8c0.7-2,2.6-3.6,3.5-5.6c1.8-4.2,3.4-8.6,5-13c1-2.7,1.8-5.5,2.6-8.2
		c1.2-4.2,2.8-8.3,3.5-12.6c1-6.2,1.1-12.5,1.9-18.8c0.5-4.3,1.6-8.5,2.1-12.8c0.4-3.1,0.7-6.3,0.7-9.5c0-3.4-0.5-6.7-0.7-10.1
		C1188.9,114.3,1190.5,110.6,1189.8,106.5z M1166.2,136.9c-0.4,6.6-1.5,13.1-1.3,19.6c0.2,4.9-0.9,9.4-1.8,14.1
		c-0.7,3.5-2,7-3.3,10.3c-2,4.7-4.4,9.3-6.3,14c-2.5,6.1-5.8,11.4-11.2,15.4c-1.7,1.3-4.1,1.3-5.4-0.4c-2.1-2.8-4.1-5.8-6-8.8
		c-2-3.4-3.9-6.8-5.7-10.3c-0.8-1.7-1.3-3.5-1.8-5.3c-0.8-2.8-1.4-5.7-2.1-8.6c-0.9-3.3-2-6.5-2.8-9.8c-0.6-2.8-0.8-5.7-1.2-8.6
		c0.1,0,0.2,0,0.4,0c-0.2-2.5-0.9-5-0.6-7.5c0.4-4.6-0.6-9.3,0.8-14c1.1-3.9,1-8.1,1.2-12.3c0.3-7.5,1.4-14.7,3.5-21.9
		c1-3.4,1.1-7.1,2-10.6c0.7-2.9,1.9-5.8,2.9-8.6c1.5-4.2,3-8.3,4.5-12.5c0.4-1.1,0.8-2.1,1.2-3.2c0.7-2.1,1.1-4.3,2.1-6.3
		c1.3-2.6,2.7-5.1,4.5-7.4c0.9-1.3,2.2-1.4,3.5,0.3c1.9,2.3,4.4,4.1,6.3,6.3c1.4,1.6,2.5,3.4,3.3,5.3c1.7,3.8,2.8,7.7,3.6,11.9
		c0.7,3.6,2.5,6.9,3.8,10.3c0.4,1.1,0.8,2.3,0.9,3.5c0.9,6,1.8,11.9,2.7,17.9c0.5,3.5,1.3,7.1,1.8,10.6c0.3,2.3,0.4,4.6,0.4,6.9
		C1166.3,130.6,1166.4,133.8,1166.2,136.9z"/>
</g>
</svg>
